<svg width="303" height="226" viewBox="0 0 303 226" fill="none" xmlns="http://www.w3.org/2000/svg">
<path d="M272.466 208.022H252.408V208.174H272.466V208.022Z" fill="#EBEBEB"/>
<path d="M200.591 209.67H195.329V209.821H200.591V209.67Z" fill="#EBEBEB"/>
<path d="M251.802 202.402H240.18V202.554H251.802V202.402Z" fill="#EBEBEB"/>
<path d="M57.927 203.42H31.7705V203.571H57.927V203.42Z" fill="#EBEBEB"/>
<path d="M67.1564 203.42H63.3229V203.571H67.1564V203.42Z" fill="#EBEBEB"/>
<path d="M136.354 205.975H79.6202V206.127H136.354V205.975Z" fill="#EBEBEB"/>
<path d="M144.378 171.268H27.4344C26.5172 171.268 25.6377 170.903 24.9892 170.255C24.3406 169.606 23.9763 168.727 23.9763 167.81V3.42776C23.9843 2.51588 24.3522 1.64407 24.9998 1.0021C25.6475 0.360121 26.5225 -5.02184e-05 27.4344 -1.52562e-05H144.378C144.833 -1.52562e-05 145.282 0.0894293 145.702 0.263213C146.121 0.436997 146.503 0.691716 146.824 1.01283C147.145 1.33394 147.4 1.71515 147.573 2.1347C147.747 2.55425 147.837 3.00392 147.837 3.45804V167.81C147.837 168.264 147.747 168.713 147.573 169.133C147.4 169.553 147.145 169.934 146.824 170.255C146.503 170.576 146.121 170.831 145.702 171.004C145.282 171.178 144.833 171.268 144.378 171.268ZM27.4344 0.121108C26.5579 0.122709 25.7178 0.471601 25.098 1.09137C24.4782 1.71114 24.1293 2.55127 24.1277 3.42776V167.81C24.1293 168.686 24.4782 169.526 25.098 170.146C25.7178 170.766 26.5579 171.115 27.4344 171.116H144.378C145.255 171.115 146.095 170.766 146.715 170.146C147.335 169.526 147.684 168.686 147.685 167.81V3.42776C147.684 2.55127 147.335 1.71114 146.715 1.09137C146.095 0.471601 145.255 0.122709 144.378 0.121108H27.4344Z" fill="#EBEBEB"/>
<path d="M275.373 171.268H158.429C157.512 171.268 156.632 170.903 155.983 170.255C155.335 169.606 154.971 168.727 154.971 167.81V3.42776C154.979 2.51588 155.346 1.64407 155.994 1.0021C156.642 0.360121 157.517 -5.02184e-05 158.429 -1.52562e-05H275.373C276.29 -1.52562e-05 277.169 0.364315 277.818 1.01283C278.466 1.66134 278.831 2.54091 278.831 3.45804V167.81C278.831 168.727 278.466 169.606 277.818 170.255C277.169 170.903 276.29 171.268 275.373 171.268ZM158.429 0.121108C157.552 0.122709 156.712 0.471601 156.092 1.09137C155.472 1.71114 155.124 2.55127 155.122 3.42776V167.81C155.124 168.686 155.472 169.526 156.092 170.146C156.712 170.766 157.552 171.115 158.429 171.116H275.373C276.249 171.115 277.089 170.766 277.709 170.146C278.329 169.526 278.678 168.686 278.679 167.81V3.42776C278.678 2.55127 278.329 1.71114 277.709 1.09137C277.089 0.471601 276.249 0.122709 275.373 0.121108H158.429Z" fill="#EBEBEB"/>
<path d="M302.807 198.278H0V198.43H302.807V198.278Z" fill="#EBEBEB"/>
<path d="M117.64 164.933C117.64 164.933 123.539 155.703 123.818 158.962C123.818 158.962 128.451 154.922 128.826 158.55C128.826 158.55 132.884 155.267 132.642 158.719C132.642 158.719 135.918 157.193 134.967 160.827C134.967 160.827 140.557 162.093 137.105 163.486C137.105 163.486 142.344 165.302 138.801 167.434C138.801 167.434 141.163 171.153 138.631 171.673C138.631 171.673 138.704 176.276 135.851 176.476C135.851 176.476 137.244 181.575 134.985 180.885C134.985 180.885 136.075 185.651 131.509 184.21C131.509 184.21 129.735 186.632 126.549 183.961C126.549 183.961 126.828 188.685 123.182 184.434C123.182 184.434 118.706 186.196 119.167 181.896C119.167 181.896 116.702 185.003 115.727 181.406C115.727 181.406 112.372 187.692 110.452 179.716C110.452 179.716 106.497 181.163 108.635 176.294C108.635 176.294 103.954 175.998 107.321 173.817C107.321 173.817 103.027 171.655 109.138 170.789C109.138 170.789 106.043 168.288 111.251 167.404C111.251 167.368 110.567 165.872 117.64 164.933Z" fill="#EBEBEB"/>
<path d="M118.519 198.411H122.921L122.074 191.071L122.007 184.288L126.168 178.723L132.03 173.999L136.245 173.757L136.318 173.284L132.46 173.2L133.919 170.88L133.483 170.565L131.449 173.133L126.319 177.178L127.597 169.929L130.77 164.073L130.286 163.589L127.034 169.057L122.007 164.654L121.644 165.066L126.725 170.159L125.005 177.936L121.292 182.453L120.117 177.76L119.609 173.06L121.317 171.431L121.135 170.947L119.1 172.449L116.629 169.499L116.411 169.984L118.416 172.915L118.688 177.306L113.141 174.193L112.85 174.611L118.852 178.723L119.899 183.398L120.335 187.25L120.117 188.673L119.681 191.58L118.519 198.411Z" fill="#E0E0E0"/>
<path d="M86.3364 126.367C86.3364 126.367 59.1625 135.773 64.2799 128.184C64.2799 128.184 40.8669 133.901 46.4385 125.338C46.4385 125.338 34.3263 123.842 40.7518 116.781C40.7518 116.781 33.1998 110.93 41.2908 104.753C41.2908 104.753 37.9842 91.1389 46.9473 94.3487C46.9473 94.3487 43.8586 84.7376 54.3055 86.4757C54.3055 86.4757 56.9641 76.6163 62.6387 80.0804C62.6387 80.0804 66.0665 63.7288 71.8198 68.4405C71.8198 68.4405 78.0153 54.8444 81.0978 60.4282C81.0978 60.4282 87.2872 48.0979 93.4463 59.4835C93.4463 59.4835 100.992 57.4244 102.415 68.9795C102.415 68.9795 111.245 62.348 109.604 74.0424C109.604 74.0424 121.498 81.546 117.925 85.4401C117.925 85.4401 130.213 84.7557 125.829 94.3305C125.829 94.3305 137.565 95.9959 129.462 110.422C129.462 110.422 138.728 117.689 131.685 121.553C131.685 121.553 135.609 129.075 125.441 127.736C125.441 127.736 127.052 135.549 113.934 126.434C113.934 126.434 117.568 138.51 106.207 131.013C106.201 130.982 101.368 137.123 86.3364 126.367Z" fill="#F0F0F0"/>
<path d="M84.4711 150.925C84.4711 150.925 105.129 160.887 101.773 154.401C101.773 154.401 119.797 161.063 116.169 153.796C116.169 153.796 125.913 153.735 121.468 147.546C121.468 147.546 127.991 143.609 122.146 137.971C122.146 137.971 126.028 127.488 118.634 129.202C118.634 129.202 121.965 121.874 113.535 122.267C113.535 122.267 112.323 114.213 107.521 116.429C107.521 116.429 106.31 103.154 101.325 106.364C101.325 106.364 97.6916 95.0148 94.712 99.1572C94.712 99.1572 90.9511 88.8194 85.0222 97.2677C85.0222 97.2677 79.2325 94.9421 77.0402 103.966C77.0402 103.966 70.6631 97.9096 70.8811 107.309C70.8811 107.309 60.7673 112.154 63.2322 115.569C63.2322 115.569 53.5424 113.892 56.1526 121.88C56.1526 121.88 46.6989 122.116 51.7982 134.295C51.7982 134.295 43.7859 139.206 49.0063 142.907C49.0063 142.907 45.2091 148.503 53.3788 148.357C53.3788 148.357 51.3864 154.413 62.6145 148.388C62.6145 148.388 58.5932 157.617 68.3133 152.73C68.3072 152.748 71.5654 158.065 84.4711 150.925Z" fill="#F0F0F0"/>
<path d="M73.1278 198.569H85.9911L80.9766 174.732L83.3082 152.694L95.4629 134.616L112.571 125.889L124.878 125.102L125.09 123.551L113.843 123.285L118.089 115.751L116.811 114.715L110.882 123.079L95.8989 129.608L92.8527 106.061L105.922 87.0268L104.511 85.4522L91.2115 103.227L76.5193 88.9163L75.4595 90.2486L90.3091 106.794L92.0593 132.054L81.2249 146.734L73.9757 133.859L73.7637 116.223L78.7601 110.942L78.2211 109.368L72.28 114.243L66.7628 109.368L66.1269 110.942L70.2936 115.751L69.8091 132.381L53.615 126.046L52.7671 127.403L70.2936 136.972L77.1552 149.811L75.8834 162.329L66.1269 154.928L65.2791 156.921L75.2475 166.944L73.9757 176.385L73.1278 198.569Z" fill="#E0E0E0"/>
<path d="M235.069 71.2081H201.391V197.969H235.069V71.2081Z" fill="#F5F5F5"/>
<path d="M203.819 61.4638H173.49V197.969H203.819V61.4638Z" fill="#F0F0F0"/>
<path d="M178.82 127.47H148.491V197.969H178.82V127.47Z" fill="#F5F5F5"/>
<path d="M263.672 109.81H229.994V197.969H263.672V109.81Z" fill="#F0F0F0"/>
<path d="M181.92 74.8661H178.82V77.9971H181.92V74.8661Z" fill="white"/>
<path d="M198.484 74.8661H195.383V77.9971H198.484V74.8661Z" fill="white"/>
<path d="M181.92 85.01H178.82V88.1411H181.92V85.01Z" fill="white"/>
<path d="M190.205 85.01H187.104V88.1411H190.205V85.01Z" fill="white"/>
<path d="M198.484 95.148H195.383V98.2791H198.484V95.148Z" fill="white"/>
<path d="M181.92 105.292H178.82V108.423H181.92V105.292Z" fill="white"/>
<path d="M190.205 105.292H187.104V108.423H190.205V105.292Z" fill="white"/>
<path d="M190.205 115.43H187.104V118.561H190.205V115.43Z" fill="white"/>
<path d="M198.484 115.43H195.383V118.561H198.484V115.43Z" fill="white"/>
<path d="M190.205 125.574H187.104V128.705H190.205V125.574Z" fill="white"/>
<path d="M198.484 125.574H195.383V128.705H198.484V125.574Z" fill="white"/>
<path d="M198.484 135.712H195.383V138.843H198.484V135.712Z" fill="white"/>
<path d="M190.205 145.856H187.104V148.987H190.205V145.856Z" fill="white"/>
<path d="M224.961 155.619H228.062V152.488H224.961V155.619Z" fill="white"/>
<path d="M208.398 155.619H211.499V152.488H208.398V155.619Z" fill="white"/>
<path d="M224.961 145.475H228.062V142.344H224.961V145.475Z" fill="white"/>
<path d="M216.677 145.475H219.777V142.344H216.677V145.475Z" fill="white"/>
<path d="M208.398 135.337H211.499V132.206H208.398V135.337Z" fill="white"/>
<path d="M224.961 125.193H228.062V122.062H224.961V125.193Z" fill="white"/>
<path d="M216.677 125.193H219.777V122.062H216.677V125.193Z" fill="white"/>
<path d="M216.677 115.055H219.777V111.924H216.677V115.055Z" fill="white"/>
<path d="M208.398 115.055H211.499V111.924H208.398V115.055Z" fill="white"/>
<path d="M216.677 104.911H219.777V101.78H216.677V104.911Z" fill="white"/>
<path d="M208.398 104.911H211.499V101.78H208.398V104.911Z" fill="white"/>
<path d="M208.398 94.7726H211.499V91.6416H208.398V94.7726Z" fill="white"/>
<path d="M216.677 84.6286H219.777V81.4975H216.677V84.6286Z" fill="white"/>
<path d="M253.571 118.561H256.671V115.43H253.571V118.561Z" fill="white"/>
<path d="M237.001 118.561H240.102V115.43H237.001V118.561Z" fill="white"/>
<path d="M253.571 128.699H256.671V125.568H253.571V128.699Z" fill="white"/>
<path d="M245.286 128.699H248.387V125.568H245.286V128.699Z" fill="white"/>
<path d="M237.001 138.843H240.102V135.712H237.001V138.843Z" fill="white"/>
<path d="M253.571 148.981H256.671V145.85H253.571V148.981Z" fill="white"/>
<path d="M245.286 148.981H248.387V145.85H245.286V148.981Z" fill="white"/>
<path d="M245.286 159.125H248.387V155.994H245.286V159.125Z" fill="white"/>
<path d="M237.001 159.125H240.102V155.994H237.001V159.125Z" fill="white"/>
<path d="M245.286 169.269H248.387V166.138H245.286V169.269Z" fill="white"/>
<path d="M237.001 169.269H240.102V166.138H237.001V169.269Z" fill="white"/>
<path d="M237.001 179.407H240.102V176.276H237.001V179.407Z" fill="white"/>
<path d="M245.286 189.551H248.387V186.42H245.286V189.551Z" fill="white"/>
<path d="M240.871 58.7022C234.615 61.8271 217.688 63.6561 213.449 54.2146C208.434 43.041 220.389 52.3977 220.389 52.3977C220.389 52.3977 220.389 45.0274 224.374 45.0274C229.825 45.0274 229.358 51.7679 229.358 51.7679C229.871 50.8451 230.651 50.0994 231.596 49.6291C232.541 49.1588 233.606 48.986 234.651 49.1335C238.473 49.5453 236.244 54.5174 236.244 54.5174C236.244 54.5174 245.879 56.2131 240.871 58.7022Z" fill="#F5F5F5"/>
<path d="M213.322 37.4512C201.209 41.6239 167.961 42.5626 165.351 25.139C162.25 4.46337 180.261 17.7081 180.261 17.7081C180.261 17.7081 180.419 8.01832 188.74 7.07356C197.061 6.12881 196.946 17.1025 196.946 17.1025C196.946 17.1025 211.886 7.95776 210.463 25.5448C210.469 25.5448 233.767 30.3837 213.322 37.4512Z" fill="#F5F5F5"/>
<path d="M110.391 43.0774C99.5689 46.814 69.815 47.6558 67.4531 32.0612C64.6794 13.5537 80.7766 25.3995 80.7766 25.3995C80.7766 25.3995 80.9159 16.7392 88.371 15.8853C95.8262 15.0314 95.7171 24.8605 95.7171 24.8605C95.7171 24.8605 109.089 16.6786 107.829 32.4186C107.835 32.4246 128.699 36.7547 110.391 43.0774Z" fill="#F5F5F5"/>
<path d="M68.6161 53.2941C63.426 55.88 49.3878 57.4001 45.8692 49.5695C41.7086 40.2976 51.6225 48.0797 51.6225 48.0797C51.6225 48.0797 51.6225 41.963 54.9353 41.963C59.441 41.963 59.0655 47.5589 59.0655 47.5589C59.4905 46.7933 60.1376 46.1745 60.9215 45.7841C61.7054 45.3938 62.5892 45.2503 63.4562 45.3726C66.6236 45.7118 64.7765 49.836 64.7765 49.836C64.7765 49.836 72.7524 51.2168 68.6161 53.2941Z" fill="#F5F5F5"/>
<path d="M265.695 42.1871C261.801 44.1311 251.257 45.2697 248.617 39.3892C245.492 32.4307 252.941 38.2748 252.941 38.2748C252.941 38.2748 252.941 33.6843 255.424 33.6843C258.809 33.6843 258.525 37.8812 258.525 37.8812C258.845 37.3064 259.331 36.8419 259.92 36.549C260.51 36.256 261.174 36.1483 261.825 36.24C264.199 36.4943 262.812 39.5951 262.812 39.5951C262.812 39.5951 268.802 40.6367 265.695 42.1871Z" fill="#F5F5F5"/>
<path d="M151.404 225.295C216.254 225.295 268.826 222.225 268.826 218.439C268.826 214.653 216.254 211.583 151.404 211.583C86.5529 211.583 33.9811 214.653 33.9811 218.439C33.9811 222.225 86.5529 225.295 151.404 225.295Z" fill="#F5F5F5"/>
<path d="M76.1017 192.422H71.0933C67.8723 192.422 65.2612 195.033 65.2612 198.254V209.803C65.2612 213.024 67.8723 215.635 71.0933 215.635H76.1017C79.3227 215.635 81.9338 213.024 81.9338 209.803V198.254C81.9338 195.033 79.3227 192.422 76.1017 192.422Z" fill="#263238"/>
<path opacity="0.8" d="M76.1017 192.422H71.0933C67.8723 192.422 65.2612 195.033 65.2612 198.254V209.803C65.2612 213.024 67.8723 215.635 71.0933 215.635H76.1017C79.3227 215.635 81.9338 213.024 81.9338 209.803V198.254C81.9338 195.033 79.3227 192.422 76.1017 192.422Z" fill="black"/>
<path d="M175.029 192.422H170.02C166.799 192.422 164.188 195.033 164.188 198.254V209.803C164.188 213.024 166.799 215.635 170.02 215.635H175.029C178.25 215.635 180.861 213.024 180.861 209.803V198.254C180.861 195.033 178.25 192.422 175.029 192.422Z" fill="#263238"/>
<path opacity="0.8" d="M175.029 192.422H170.02C166.799 192.422 164.188 195.033 164.188 198.254V209.803C164.188 213.024 166.799 215.635 170.02 215.635H175.029C178.25 215.635 180.861 213.024 180.861 209.803V198.254C180.861 195.033 178.25 192.422 175.029 192.422Z" fill="black"/>
<path d="M90.8364 104.814H88.5835L90.7758 100.054H94.8879L90.8364 104.814Z" fill="#263238"/>
<path d="M154.831 104.814H157.084L154.892 100.054H150.786L154.831 104.814Z" fill="#263238"/>
<path d="M179.734 193.027H174.726C171.505 193.027 168.894 195.639 168.894 198.859V210.409C168.894 213.63 171.505 216.241 174.726 216.241H179.734C182.955 216.241 185.566 213.63 185.566 210.409V198.859C185.566 195.639 182.955 193.027 179.734 193.027Z" fill="#263238"/>
<g opacity="0.5">
<path d="M177.227 214.236C176.981 214.236 176.746 214.138 176.572 213.965C176.398 213.791 176.301 213.555 176.301 213.309V209.282C176.3 209.16 176.323 209.039 176.369 208.926C176.416 208.813 176.484 208.71 176.57 208.623C176.656 208.536 176.758 208.468 176.871 208.421C176.984 208.374 177.105 208.349 177.227 208.349C177.349 208.349 177.47 208.374 177.583 208.421C177.696 208.468 177.798 208.536 177.885 208.623C177.971 208.71 178.039 208.813 178.085 208.926C178.131 209.039 178.155 209.16 178.154 209.282V213.309C178.154 213.555 178.056 213.791 177.882 213.965C177.709 214.138 177.473 214.236 177.227 214.236Z" fill="black"/>
</g>
<g opacity="0.5">
<path d="M177.227 205.564C177.105 205.564 176.984 205.541 176.872 205.495C176.759 205.448 176.656 205.38 176.57 205.294C176.484 205.208 176.416 205.105 176.369 204.993C176.323 204.88 176.3 204.759 176.301 204.637V202.687C176.3 202.565 176.323 202.444 176.369 202.331C176.416 202.219 176.484 202.116 176.57 202.03C176.656 201.944 176.759 201.876 176.872 201.829C176.984 201.783 177.105 201.76 177.227 201.76C177.349 201.76 177.47 201.783 177.583 201.829C177.695 201.876 177.798 201.944 177.884 202.03C177.97 202.116 178.039 202.219 178.085 202.331C178.131 202.444 178.155 202.565 178.154 202.687V204.637C178.155 204.759 178.131 204.88 178.085 204.993C178.039 205.105 177.97 205.208 177.884 205.294C177.798 205.38 177.695 205.448 177.583 205.495C177.47 205.541 177.349 205.564 177.227 205.564Z" fill="black"/>
</g>
<g opacity="0.5">
<path d="M173.061 214.236C172.814 214.236 172.578 214.139 172.403 213.965C172.229 213.791 172.13 213.556 172.128 213.309V212.995C172.128 212.872 172.152 212.751 172.199 212.639C172.246 212.526 172.315 212.423 172.401 212.337C172.488 212.251 172.591 212.183 172.704 212.137C172.817 212.091 172.938 212.067 173.061 212.068C173.306 212.068 173.542 212.166 173.716 212.339C173.89 212.513 173.987 212.749 173.987 212.995V213.309C173.986 213.555 173.887 213.789 173.714 213.963C173.541 214.136 173.306 214.234 173.061 214.236Z" fill="black"/>
</g>
<g opacity="0.5">
<path d="M173.061 209.857C172.938 209.858 172.817 209.835 172.704 209.789C172.591 209.742 172.488 209.674 172.401 209.588C172.315 209.502 172.246 209.4 172.199 209.287C172.152 209.174 172.128 209.053 172.128 208.931V202.687C172.128 202.565 172.152 202.444 172.199 202.331C172.246 202.218 172.315 202.116 172.401 202.03C172.488 201.944 172.591 201.875 172.704 201.829C172.817 201.783 172.938 201.76 173.061 201.76C173.306 201.76 173.542 201.858 173.716 202.032C173.89 202.206 173.987 202.441 173.987 202.687V208.937C173.986 209.182 173.887 209.416 173.714 209.588C173.54 209.761 173.305 209.857 173.061 209.857Z" fill="black"/>
</g>
<g opacity="0.5">
<path d="M181.394 214.236C181.148 214.236 180.912 214.138 180.739 213.965C180.565 213.791 180.467 213.555 180.467 213.309V212.995C180.466 212.873 180.49 212.752 180.536 212.639C180.582 212.526 180.651 212.424 180.737 212.338C180.823 212.251 180.925 212.183 181.038 212.137C181.151 212.091 181.272 212.067 181.394 212.068C181.516 212.067 181.637 212.091 181.749 212.137C181.862 212.183 181.965 212.251 182.051 212.338C182.137 212.424 182.205 212.526 182.251 212.639C182.298 212.752 182.321 212.873 182.32 212.995V213.309C182.32 213.555 182.223 213.791 182.049 213.965C181.875 214.138 181.64 214.236 181.394 214.236Z" fill="black"/>
</g>
<g opacity="0.5">
<path d="M181.394 209.857C181.15 209.857 180.915 209.76 180.743 209.588C180.57 209.415 180.473 209.181 180.473 208.937V202.687C180.472 202.565 180.496 202.444 180.542 202.331C180.588 202.219 180.657 202.116 180.743 202.03C180.829 201.944 180.931 201.876 181.044 201.829C181.157 201.783 181.278 201.76 181.4 201.76C181.522 201.76 181.643 201.783 181.755 201.829C181.868 201.876 181.971 201.944 182.057 202.03C182.143 202.116 182.211 202.219 182.257 202.331C182.304 202.444 182.327 202.565 182.326 202.687V208.937C182.326 209.059 182.302 209.18 182.255 209.292C182.208 209.405 182.139 209.507 182.052 209.592C181.966 209.678 181.863 209.745 181.75 209.791C181.637 209.836 181.516 209.859 181.394 209.857Z" fill="black"/>
</g>
<path d="M70.7965 193.027H65.7881C62.5672 193.027 59.9561 195.639 59.9561 198.859V210.409C59.9561 213.63 62.5672 216.241 65.7881 216.241H70.7965C74.0175 216.241 76.6286 213.63 76.6286 210.409V198.859C76.6286 195.639 74.0175 193.027 70.7965 193.027Z" fill="#263238"/>
<g opacity="0.5">
<path d="M68.2893 214.236C68.044 214.234 67.8092 214.136 67.6358 213.963C67.4624 213.789 67.3643 213.555 67.3627 213.309V209.282C67.3627 209.036 67.4601 208.8 67.6337 208.625C67.8073 208.45 68.043 208.351 68.2893 208.349C68.5366 208.349 68.7738 208.448 68.9487 208.623C69.1236 208.798 69.2219 209.035 69.2219 209.282V213.309C69.2203 213.556 69.1213 213.791 68.9466 213.965C68.7719 214.139 68.5356 214.236 68.2893 214.236Z" fill="black"/>
</g>
<g opacity="0.5">
<path d="M68.2893 205.564C68.0435 205.564 67.8078 205.466 67.6341 205.292C67.4603 205.119 67.3627 204.883 67.3627 204.637V202.687C67.3627 202.441 67.4603 202.206 67.6341 202.032C67.8078 201.858 68.0435 201.76 68.2893 201.76C68.4115 201.76 68.5326 201.783 68.6457 201.829C68.7588 201.875 68.8617 201.944 68.9484 202.03C69.0351 202.116 69.1039 202.218 69.1508 202.331C69.1977 202.444 69.2219 202.565 69.2219 202.687V204.637C69.2219 204.759 69.1977 204.88 69.1508 204.993C69.1039 205.106 69.0351 205.208 68.9484 205.294C68.8617 205.381 68.7588 205.449 68.6457 205.495C68.5326 205.541 68.4115 205.564 68.2893 205.564Z" fill="black"/>
</g>
<g opacity="0.5">
<path d="M64.1228 214.236C63.8775 214.234 63.6427 214.136 63.4693 213.963C63.2959 213.789 63.1978 213.555 63.1962 213.309V212.995C63.1962 212.749 63.2938 212.513 63.4676 212.339C63.6413 212.166 63.877 212.068 64.1228 212.068C64.2449 212.067 64.3661 212.091 64.4792 212.137C64.5923 212.183 64.6952 212.251 64.7819 212.337C64.8686 212.423 64.9374 212.526 64.9843 212.639C65.0312 212.751 65.0554 212.872 65.0554 212.995V213.309C65.0538 213.556 64.9548 213.791 64.7801 213.965C64.6054 214.139 64.3691 214.236 64.1228 214.236Z" fill="black"/>
</g>
<g opacity="0.5">
<path d="M64.1228 209.857C63.877 209.857 63.6413 209.76 63.4676 209.586C63.2938 209.412 63.1962 209.177 63.1962 208.931V202.687C63.1962 202.441 63.2938 202.206 63.4676 202.032C63.6413 201.858 63.877 201.76 64.1228 201.76C64.2449 201.76 64.3661 201.783 64.4792 201.829C64.5923 201.875 64.6952 201.944 64.7819 202.03C64.8686 202.116 64.9374 202.218 64.9843 202.331C65.0312 202.444 65.0554 202.565 65.0554 202.687V208.937C65.0546 209.059 65.0299 209.179 64.9826 209.291C64.9353 209.403 64.8663 209.505 64.7797 209.59C64.6931 209.676 64.5905 209.743 64.4778 209.789C64.3651 209.835 64.2444 209.858 64.1228 209.857Z" fill="black"/>
</g>
<g opacity="0.5">
<path d="M72.4619 214.236C72.2156 214.236 71.9793 214.139 71.8046 213.965C71.6299 213.791 71.5309 213.556 71.5293 213.309V212.995C71.5293 212.872 71.5535 212.751 71.6004 212.639C71.6473 212.526 71.7161 212.423 71.8028 212.337C71.8895 212.251 71.9924 212.183 72.1055 212.137C72.2186 212.091 72.3398 212.067 72.4619 212.068C72.7077 212.068 72.9434 212.166 73.1171 212.339C73.2909 212.513 73.3885 212.749 73.3885 212.995V213.309C73.3869 213.555 73.2888 213.789 73.1154 213.963C72.942 214.136 72.7072 214.234 72.4619 214.236Z" fill="black"/>
</g>
<g opacity="0.5">
<path d="M72.4619 209.857C72.3398 209.858 72.2186 209.835 72.1055 209.789C71.9924 209.742 71.8895 209.674 71.8028 209.588C71.7161 209.502 71.6473 209.4 71.6004 209.287C71.5535 209.174 71.5293 209.053 71.5293 208.931V202.687C71.5293 202.565 71.5535 202.444 71.6004 202.331C71.6473 202.218 71.7161 202.116 71.8028 202.03C71.8895 201.944 71.9924 201.875 72.1055 201.829C72.2186 201.783 72.3398 201.76 72.4619 201.76C72.7077 201.76 72.9434 201.858 73.1171 202.032C73.2909 202.206 73.3885 202.441 73.3885 202.687V208.937C73.3869 209.182 73.2886 209.416 73.115 209.588C72.9414 209.761 72.7066 209.857 72.4619 209.857Z" fill="black"/>
</g>
<path d="M174.532 138.013H71.0691L59.956 159.392C59.0907 161.054 58.6398 162.901 58.6419 164.776V200.113C58.6419 200.82 58.9226 201.498 59.4223 201.997C59.9221 202.497 60.5998 202.778 61.3066 202.778H184.355C185.062 202.778 185.74 202.497 186.239 201.997C186.739 201.498 187.02 200.82 187.02 200.113V164.788C187.02 162.904 186.565 161.049 185.694 159.38L174.532 138.013Z" fill="#407BFF"/>
<path opacity="0.3" d="M187.02 200.113V174.774C187.021 175.848 186.81 176.912 186.399 177.904C185.989 178.896 185.386 179.798 184.627 180.557C183.868 181.317 182.966 181.919 181.974 182.329C180.981 182.74 179.918 182.951 178.844 182.95H66.8054C65.7315 182.951 64.668 182.74 63.6758 182.329C62.6835 181.919 61.7819 181.317 61.0225 180.557C60.2631 179.798 59.661 178.896 59.2504 177.904C58.8398 176.912 58.6288 175.848 58.6296 174.774V200.113C58.6296 200.82 58.9104 201.498 59.4101 201.997C59.9098 202.497 60.5876 202.778 61.2943 202.778H184.355C185.062 202.778 185.74 202.497 186.239 201.997C186.739 201.498 187.02 200.82 187.02 200.113Z" fill="black"/>
<path d="M173.539 137.317H178.523V130.286C179.896 129.864 181.326 129.66 182.762 129.68C187.389 129.68 191.138 131.757 191.138 134.319C191.138 136.881 187.389 138.964 182.762 138.964C181.895 138.962 181.03 138.883 180.176 138.728L175.507 140.587L173.539 137.317Z" fill="#407BFF"/>
<path opacity="0.5" d="M178.523 135.004V130.286C179.896 129.864 181.326 129.66 182.762 129.68C187.389 129.68 191.138 131.757 191.138 134.319C191.134 134.421 191.124 134.522 191.108 134.622C188.13 134.952 185.135 135.109 182.139 135.094C180.873 135.052 179.674 135.052 178.523 135.004Z" fill="white"/>
<path d="M72.3468 137.317H67.3625V130.286C65.9897 129.864 64.5593 129.66 63.1233 129.68C58.5024 129.68 54.7537 131.757 54.7537 134.319C54.7537 136.881 58.5024 138.964 63.1233 138.964C63.9905 138.962 64.8559 138.883 65.7092 138.728L70.3846 140.587L72.3468 137.317Z" fill="#407BFF"/>
<path opacity="0.5" d="M67.3625 135.004V130.286C65.9896 129.864 64.5593 129.66 63.1232 129.68C58.5024 129.68 54.7536 131.757 54.7536 134.319C54.7476 134.42 54.7476 134.521 54.7536 134.622C57.7318 134.952 60.7265 135.109 63.7228 135.094C65.0127 135.052 66.2179 135.052 67.3625 135.004Z" fill="white"/>
<path d="M157.557 104.814H88.1775C87.0567 104.814 85.9618 105.152 85.0352 105.782C84.1086 106.413 83.393 107.308 82.9814 108.35L71.2506 138.026H174.417L162.753 108.35C162.341 107.308 161.626 106.413 160.699 105.782C159.772 105.152 158.678 104.814 157.557 104.814Z" fill="#263238"/>
<path opacity="0.8" d="M157.557 104.814H88.1775C87.0567 104.814 85.9618 105.152 85.0352 105.782C84.1086 106.413 83.393 107.308 82.9814 108.35L71.2506 138.026H174.417L162.753 108.35C162.341 107.308 161.626 106.413 160.699 105.782C159.772 105.152 158.678 104.814 157.557 104.814Z" fill="white"/>
<path d="M172.528 137.317L162.232 111.148C162.01 110.581 161.622 110.093 161.119 109.749C160.615 109.406 160.02 109.222 159.41 109.223H86.3184C85.7095 109.222 85.1145 109.404 84.6111 109.747C84.1076 110.089 83.7191 110.576 83.4963 111.142L73.1403 137.317H172.528Z" fill="#263238"/>
<path opacity="0.2" d="M172.528 137.317L162.232 111.148C162.01 110.581 161.622 110.093 161.119 109.749C160.615 109.406 160.02 109.222 159.41 109.223H86.3184C85.7095 109.222 85.1145 109.404 84.6111 109.747C84.1076 110.089 83.7191 110.576 83.4963 111.142L73.1403 137.317H172.528Z" fill="white"/>
<path d="M159.198 92.5136H86.4698C84.6938 92.5136 83.254 93.9534 83.254 95.7295V98.1216C83.254 99.8977 84.6938 101.337 86.4698 101.337H159.198C160.974 101.337 162.414 99.8977 162.414 98.1216V95.7295C162.414 93.9534 160.974 92.5136 159.198 92.5136Z" fill="#263238"/>
<path opacity="0.5" d="M159.198 92.5136H86.4698C84.6938 92.5136 83.254 93.9534 83.254 95.7295V98.1216C83.254 99.8977 84.6938 101.337 86.4698 101.337H159.198C160.974 101.337 162.414 99.8977 162.414 98.1216V95.7295C162.414 93.9534 160.974 92.5136 159.198 92.5136Z" fill="white"/>
<path d="M91.8355 94.3668H86.8876C85.9076 94.3668 85.1132 95.1613 85.1132 96.1413V97.6977C85.1132 98.6777 85.9076 99.4721 86.8876 99.4721H91.8355C92.8155 99.4721 93.6099 98.6777 93.6099 97.6977V96.1413C93.6099 95.1613 92.8155 94.3668 91.8355 94.3668Z" fill="#407BFF"/>
<path d="M101.362 94.3668H96.414C95.434 94.3668 94.6395 95.1613 94.6395 96.1413V97.6977C94.6395 98.6777 95.434 99.4721 96.414 99.4721H101.362C102.342 99.4721 103.136 98.6777 103.136 97.6977V96.1413C103.136 95.1613 102.342 94.3668 101.362 94.3668Z" fill="#407BFF"/>
<path d="M110.894 94.3668H105.946C104.966 94.3668 104.172 95.1613 104.172 96.1413V97.6977C104.172 98.6777 104.966 99.4721 105.946 99.4721H110.894C111.874 99.4721 112.669 98.6777 112.669 97.6977V96.1413C112.669 95.1613 111.874 94.3668 110.894 94.3668Z" fill="#407BFF"/>
<path d="M120.421 94.3668H115.473C114.493 94.3668 113.698 95.1613 113.698 96.1413V97.6977C113.698 98.6777 114.493 99.4721 115.473 99.4721H120.421C121.401 99.4721 122.195 98.6777 122.195 97.6977V96.1413C122.195 95.1613 121.401 94.3668 120.421 94.3668Z" fill="#407BFF"/>
<path d="M130.195 94.3668H125.247C124.267 94.3668 123.473 95.1613 123.473 96.1413V97.6977C123.473 98.6777 124.267 99.4721 125.247 99.4721H130.195C131.175 99.4721 131.97 98.6777 131.97 97.6977V96.1413C131.97 95.1613 131.175 94.3668 130.195 94.3668Z" fill="#407BFF"/>
<path opacity="0.7" d="M120.421 94.3668H115.473C114.493 94.3668 113.698 95.1613 113.698 96.1413V97.6977C113.698 98.6777 114.493 99.4721 115.473 99.4721H120.421C121.401 99.4721 122.195 98.6777 122.195 97.6977V96.1413C122.195 95.1613 121.401 94.3668 120.421 94.3668Z" fill="white"/>
<path opacity="0.7" d="M130.195 94.3668H125.247C124.267 94.3668 123.473 95.1613 123.473 96.1413V97.6977C123.473 98.6777 124.267 99.4721 125.247 99.4721H130.195C131.175 99.4721 131.97 98.6777 131.97 97.6977V96.1413C131.97 95.1613 131.175 94.3668 130.195 94.3668Z" fill="white"/>
<path d="M139.722 94.3668H134.774C133.794 94.3668 132.999 95.1613 132.999 96.1413V97.6977C132.999 98.6777 133.794 99.4721 134.774 99.4721H139.722C140.702 99.4721 141.496 98.6777 141.496 97.6977V96.1413C141.496 95.1613 140.702 94.3668 139.722 94.3668Z" fill="#407BFF"/>
<path d="M149.254 94.3668H144.306C143.326 94.3668 142.531 95.1613 142.531 96.1413V97.6977C142.531 98.6777 143.326 99.4721 144.306 99.4721H149.254C150.234 99.4721 151.028 98.6777 151.028 97.6977V96.1413C151.028 95.1613 150.234 94.3668 149.254 94.3668Z" fill="#407BFF"/>
<path d="M158.78 94.3668H153.832C152.852 94.3668 152.058 95.1613 152.058 96.1413V97.6977C152.058 98.6777 152.852 99.4721 153.832 99.4721H158.78C159.76 99.4721 160.554 98.6777 160.554 97.6977V96.1413C160.554 95.1613 159.76 94.3668 158.78 94.3668Z" fill="#407BFF"/>
<g opacity="0.4">
<path d="M139.722 94.3668H134.774C133.794 94.3668 132.999 95.1613 132.999 96.1413V97.6977C132.999 98.6777 133.794 99.4721 134.774 99.4721H139.722C140.702 99.4721 141.496 98.6777 141.496 97.6977V96.1413C141.496 95.1613 140.702 94.3668 139.722 94.3668Z" fill="black"/>
<path d="M149.254 94.3669H144.306C143.326 94.3669 142.531 95.1613 142.531 96.1413V97.6977C142.531 98.6777 143.326 99.4722 144.306 99.4722H149.254C150.234 99.4722 151.028 98.6777 151.028 97.6977V96.1413C151.028 95.1613 150.234 94.3669 149.254 94.3669Z" fill="black"/>
<path d="M158.78 94.3669H153.832C152.852 94.3669 152.058 95.1613 152.058 96.1413V97.6977C152.058 98.6777 152.852 99.4722 153.832 99.4722H158.78C159.76 99.4722 160.554 98.6777 160.554 97.6977V96.1413C160.554 95.1613 159.76 94.3669 158.78 94.3669Z" fill="black"/>
</g>
<path opacity="0.5" d="M86.8514 167.41L68.683 163.116C67.6731 162.877 66.7945 162.257 66.2303 161.386C65.6662 160.515 65.46 159.46 65.6549 158.441L66.739 152.615C66.8524 152.012 67.1021 151.443 67.469 150.951C67.8359 150.459 68.3103 150.058 68.856 149.777C69.4017 149.497 70.0042 149.345 70.6176 149.333C71.231 149.321 71.8391 149.449 72.3954 149.708L84.4653 155.31C85.4788 155.779 86.3734 156.471 87.0823 157.334C87.7911 158.197 88.296 159.209 88.5592 160.294L89.613 164.624C89.7063 165.006 89.6999 165.406 89.5946 165.785C89.4894 166.164 89.2886 166.51 89.0116 166.79C88.7346 167.069 88.3906 167.273 88.0124 167.381C87.6342 167.49 87.2345 167.5 86.8514 167.41Z" fill="white"/>
<path opacity="0.5" d="M82.0731 165.018C84.5515 165.018 86.5606 163.009 86.5606 160.53C86.5606 158.052 84.5515 156.043 82.0731 156.043C79.5946 156.043 77.5854 158.052 77.5854 160.53C77.5854 163.009 79.5946 165.018 82.0731 165.018Z" fill="white"/>
<g opacity="0.9">
<path d="M83.1025 158.532C82.9379 158.451 82.7654 158.388 82.5877 158.344C82.4433 158.322 82.3117 158.249 82.2171 158.137C82.1225 158.026 82.0713 157.884 82.0729 157.738V157.587C82.0699 157.493 82.0889 157.399 82.1283 157.314C82.1677 157.229 82.2264 157.153 82.2999 157.095C82.3734 157.036 82.4595 156.995 82.5515 156.975C82.6435 156.956 82.7389 156.958 82.83 156.981C83.1714 157.049 83.5003 157.17 83.805 157.339C83.8893 157.38 83.9628 157.44 84.0198 157.515C84.0767 157.59 84.1155 157.676 84.1331 157.769C84.1508 157.861 84.1467 157.956 84.1213 158.046C84.0959 158.137 84.0498 158.22 83.9867 158.289L83.8837 158.411C83.7896 158.521 83.659 158.594 83.5156 158.616C83.3722 158.638 83.2256 158.608 83.1025 158.532Z" fill="white"/>
</g>
<g opacity="0.9">
<path d="M82.073 164.164C81.2406 164.164 80.4334 163.879 79.7863 163.355C79.1392 162.831 78.6915 162.101 78.5181 161.287C78.4945 161.196 78.4925 161.101 78.5122 161.009C78.5319 160.917 78.5727 160.831 78.6315 160.757C78.6903 160.684 78.7654 160.625 78.8508 160.586C78.9362 160.546 79.0297 160.527 79.1237 160.53H79.2751C79.4212 160.529 79.5629 160.58 79.6742 160.674C79.7855 160.769 79.8588 160.901 79.8807 161.045C79.9974 161.537 80.2767 161.976 80.6734 162.289C81.0702 162.603 81.5612 162.774 82.067 162.774C82.5728 162.774 83.0638 162.603 83.4606 162.289C83.8573 161.976 84.1366 161.537 84.2533 161.045C84.2752 160.901 84.3485 160.769 84.4598 160.674C84.5711 160.58 84.7128 160.529 84.8589 160.53H85.0103C85.1043 160.527 85.1978 160.546 85.2832 160.586C85.3686 160.625 85.4437 160.684 85.5025 160.757C85.5613 160.831 85.6021 160.917 85.6218 161.009C85.6415 161.101 85.6395 161.196 85.6159 161.287C85.4429 162.099 84.997 162.828 84.3524 163.351C83.7078 163.874 82.9034 164.161 82.073 164.164Z" fill="white"/>
</g>
<path opacity="0.5" d="M76.3838 157.517C76.9532 155.105 75.4593 152.688 73.0471 152.119C70.6349 151.55 68.218 153.044 67.6486 155.456C67.0793 157.868 68.5732 160.285 70.9854 160.854C73.3976 161.424 75.8145 159.93 76.3838 157.517Z" fill="white"/>
<g opacity="0.9">
<path d="M73.0432 154.498C72.878 154.414 72.7031 154.351 72.5223 154.31C72.3816 154.282 72.2547 154.206 72.1624 154.096C72.07 153.986 72.0176 153.848 72.0136 153.705V153.553C72.0106 153.459 72.0296 153.366 72.069 153.281C72.1084 153.195 72.1671 153.12 72.2406 153.061C72.3141 153.002 72.4002 152.962 72.4922 152.942C72.5842 152.922 72.6795 152.924 72.7706 152.948C73.1106 153.021 73.4387 153.142 73.7457 153.305C73.831 153.346 73.9055 153.407 73.9632 153.482C74.0209 153.557 74.0601 153.645 74.0778 153.738C74.0955 153.831 74.0911 153.927 74.0649 154.018C74.0388 154.109 73.9917 154.193 73.9274 154.262L73.8244 154.377C73.7303 154.488 73.5996 154.561 73.4563 154.583C73.3129 154.605 73.1663 154.575 73.0432 154.498Z" fill="white"/>
</g>
<g opacity="0.9">
<path d="M72.0137 160.13C71.1813 160.131 70.3741 159.845 69.727 159.321C69.0799 158.798 68.6322 158.068 68.4588 157.254C68.4352 157.163 68.4332 157.067 68.4529 156.975C68.4725 156.883 68.5134 156.797 68.5722 156.724C68.6309 156.65 68.706 156.592 68.7915 156.552C68.8769 156.513 68.9703 156.494 69.0644 156.497H69.2158C69.3609 156.495 69.5019 156.545 69.6131 156.639C69.7243 156.732 69.7982 156.862 69.8214 157.005C69.938 157.498 70.2173 157.936 70.6141 158.25C71.0109 158.563 71.5019 158.734 72.0077 158.734C72.5135 158.734 73.0045 158.563 73.4012 158.25C73.798 157.936 74.0773 157.498 74.1939 157.005C74.2171 156.862 74.2911 156.732 74.4022 156.639C74.5134 156.545 74.6544 156.495 74.7995 156.497H74.9509C75.045 156.494 75.1384 156.513 75.2239 156.552C75.3093 156.592 75.3844 156.65 75.4432 156.724C75.5019 156.797 75.5428 156.883 75.5625 156.975C75.5822 157.067 75.5801 157.163 75.5566 157.254C75.3836 158.066 74.9377 158.794 74.2931 159.318C73.6485 159.841 72.8441 160.128 72.0137 160.13Z" fill="white"/>
</g>
<path d="M98.1098 162.347C97.6914 162.342 97.2789 162.445 96.9124 162.647C96.5459 162.849 96.2378 163.142 96.0183 163.498C95.7987 163.854 95.6752 164.261 95.6596 164.679C95.6441 165.097 95.7371 165.512 95.9296 165.884C96.9349 167.882 98.2975 170.123 99.6178 170.977C109.447 177.142 136.203 177.142 146.026 170.977C147.352 170.141 148.709 167.882 149.72 165.884C149.913 165.512 150.006 165.096 149.99 164.678C149.974 164.259 149.85 163.852 149.63 163.495C149.41 163.139 149.101 162.846 148.733 162.645C148.366 162.443 147.953 162.341 147.534 162.347H98.1098Z" fill="#263238"/>
<path opacity="0.6" d="M98.1098 162.347C97.6914 162.342 97.2789 162.445 96.9124 162.647C96.5459 162.849 96.2378 163.142 96.0183 163.498C95.7987 163.854 95.6752 164.261 95.6596 164.679C95.6441 165.097 95.7371 165.512 95.9296 165.884C96.9349 167.882 98.2975 170.123 99.6178 170.977C109.447 177.142 136.203 177.142 146.026 170.977C147.352 170.141 148.709 167.882 149.72 165.884C149.913 165.512 150.006 165.096 149.99 164.678C149.974 164.259 149.85 163.852 149.63 163.495C149.41 163.139 149.101 162.846 148.733 162.645C148.366 162.443 147.953 162.341 147.534 162.347H98.1098Z" fill="white"/>
<path opacity="0.5" d="M162.214 190.478C163.019 191.658 163.741 192.892 164.376 194.172C164.596 194.612 164.699 195.101 164.677 195.592C164.655 196.084 164.508 196.561 164.249 196.98C163.991 197.398 163.63 197.744 163.201 197.984C162.771 198.224 162.288 198.35 161.796 198.351H83.8716C83.3797 198.351 82.896 198.225 82.4665 197.985C82.0371 197.745 81.6762 197.399 81.4182 196.98C81.1602 196.561 81.0137 196.083 80.9926 195.592C80.9716 195.1 81.0766 194.611 81.2977 194.172C81.9282 192.891 82.6486 191.657 83.4537 190.478C83.9663 189.758 84.6441 189.172 85.4303 188.768C86.2164 188.364 87.0879 188.155 87.9716 188.158H157.696C158.58 188.155 159.451 188.364 160.237 188.768C161.023 189.172 161.701 189.758 162.214 190.478Z" fill="white"/>
<path opacity="0.8" d="M142.011 177.009H103.651V186.293H142.011V177.009Z" fill="white"/>
<path d="M86.8877 138.013C85.5372 139.612 84.9134 142.889 85.731 145.79C87.1179 150.737 88.9953 156.339 90.8242 158.398H154.844C156.661 156.339 158.55 150.737 159.937 145.79C160.754 142.889 160.131 139.612 158.78 138.013H86.8877Z" fill="#263238"/>
<path opacity="0.8" d="M86.8877 138.013C85.5372 139.612 84.9134 142.889 85.731 145.79C87.1179 150.737 88.9953 156.339 90.8242 158.398H154.844C156.661 156.339 158.55 150.737 159.937 145.79C160.754 142.889 160.131 139.612 158.78 138.013H86.8877Z" fill="white"/>
<path d="M106.534 144.578C106.719 144.71 106.871 144.885 106.976 145.087C107.082 145.289 107.138 145.513 107.139 145.741C107.135 146.381 106.959 147.008 106.631 147.558C106.273 148.239 105.783 148.842 105.189 149.332C104.567 149.848 103.855 150.242 103.088 150.495C102.278 150.768 101.429 150.905 100.574 150.901H98.5881L96.7712 153.451H94.3488L101.616 144.203H105.038C105.563 144.172 106.085 144.303 106.534 144.578ZM103.312 148.709C103.813 148.429 104.231 148.022 104.523 147.528C104.832 147.007 104.911 146.607 104.777 146.316C104.644 146.026 104.281 145.905 103.699 145.905H102.113L99.8114 149.114H101.574C102.178 149.129 102.776 148.989 103.312 148.709Z" fill="#263238"/>
<path d="M107.709 152.96C107.391 152.783 107.117 152.538 106.908 152.241C106.698 151.944 106.558 151.604 106.497 151.246C106.408 150.395 106.588 149.537 107.012 148.793C107.477 147.889 108.092 147.071 108.829 146.371C109.531 145.677 110.339 145.099 111.221 144.657C111.987 144.267 112.833 144.06 113.692 144.051C114.42 144.025 115.137 144.238 115.733 144.657C116.302 145.092 116.724 145.69 116.944 146.371C117.213 147.149 117.272 147.985 117.114 148.793C116.959 149.701 116.559 150.549 115.957 151.246C115.303 151.995 114.484 152.582 113.565 152.96C112.57 153.37 111.504 153.576 110.428 153.566C109.484 153.608 108.546 153.399 107.709 152.96ZM112.778 151.379C113.317 151.137 113.795 150.777 114.177 150.326C114.551 149.882 114.817 149.358 114.952 148.793C115.083 148.291 115.083 147.763 114.952 147.261C114.85 146.845 114.611 146.476 114.274 146.213C113.923 145.956 113.497 145.821 113.062 145.832C112.544 145.838 112.035 145.969 111.579 146.213C111.055 146.479 110.581 146.833 110.18 147.261C109.754 147.709 109.41 148.227 109.162 148.793C108.932 149.269 108.84 149.8 108.896 150.326C108.928 150.54 109.006 150.745 109.124 150.926C109.242 151.108 109.397 151.263 109.58 151.379C110.023 151.645 110.535 151.776 111.052 151.755C111.645 151.762 112.234 151.642 112.778 151.404V151.379Z" fill="#263238"/>
<path d="M119.337 144.173H121.153C120.966 147.17 120.869 148.672 120.675 151.676H125.732C125.792 152.373 125.817 152.724 125.877 153.42H118.125L119.337 144.173Z" fill="#263238"/>
<path d="M126.162 144.173H127.978L129.704 153.42H127.252C126.822 149.72 126.604 147.873 126.162 144.173Z" fill="#263238"/>
<path d="M134.222 152.966C133.282 152.587 132.438 152.004 131.751 151.258C131.118 150.561 130.673 149.712 130.462 148.793C130.245 147.986 130.245 147.136 130.462 146.329C130.641 145.655 131.034 145.058 131.582 144.627C132.157 144.203 132.861 143.99 133.574 144.021C134.276 144.029 134.969 144.173 135.615 144.445C136.347 144.752 137.031 145.16 137.65 145.656C137.414 146.165 137.287 146.419 137.008 146.922C136.298 146.286 135.397 145.902 134.446 145.832C133.995 145.81 133.55 145.945 133.187 146.213C132.853 146.473 132.627 146.846 132.551 147.261C132.458 147.773 132.495 148.3 132.66 148.793C132.831 149.362 133.126 149.886 133.526 150.326C133.933 150.778 134.433 151.137 134.991 151.379C135.565 151.628 136.183 151.756 136.808 151.755C137.82 151.755 138.516 151.391 138.831 150.659C139.655 151.167 140.042 151.422 140.939 151.924C140.711 152.473 140.276 152.908 139.727 153.136C138.996 153.441 138.207 153.586 137.414 153.56C136.321 153.574 135.237 153.373 134.222 152.966Z" fill="#263238"/>
<path d="M150.192 151.7L151.537 153.42H143.319L138.147 144.173H144.136L145.475 145.886H141.054L142.307 147.897H146.48L147.77 149.587H143.367L144.712 151.725L150.192 151.7Z" fill="#263238"/>
<path d="M64.7101 192.658V184.107C64.7101 183.8 64.832 183.506 65.0489 183.289C65.2658 183.072 65.56 182.95 65.8668 182.95H74.4181C74.6473 182.949 74.8716 183.016 75.0627 183.143C75.2537 183.269 75.4028 183.45 75.491 183.661C75.5793 183.873 75.6027 184.106 75.5583 184.331C75.5139 184.556 75.4037 184.762 75.2417 184.924L66.6905 193.476C66.529 193.639 66.3224 193.751 66.0971 193.797C65.8718 193.843 65.6379 193.82 65.4254 193.733C65.2129 193.645 65.0313 193.496 64.9039 193.304C64.7765 193.113 64.709 192.888 64.7101 192.658Z" fill="#263238"/>
<path opacity="0.5" d="M64.7101 192.658V184.107C64.7101 183.8 64.832 183.506 65.0489 183.289C65.2658 183.072 65.56 182.95 65.8668 182.95H74.4181C74.6473 182.949 74.8716 183.016 75.0627 183.143C75.2537 183.269 75.4028 183.45 75.491 183.661C75.5793 183.873 75.6027 184.106 75.5583 184.331C75.5139 184.556 75.4037 184.762 75.2417 184.924L66.6905 193.476C66.529 193.639 66.3224 193.751 66.0971 193.797C65.8718 193.843 65.6379 193.82 65.4254 193.733C65.2129 193.645 65.0313 193.496 64.9039 193.304C64.7765 193.113 64.709 192.888 64.7101 192.658Z" fill="white"/>
<path d="M74.5152 189.404C75.0845 186.992 73.5906 184.575 71.1784 184.006C68.7663 183.436 66.3493 184.93 65.78 187.342C65.2107 189.755 66.7046 192.172 69.1167 192.741C71.5289 193.31 73.9459 191.816 74.5152 189.404Z" fill="#407BFF"/>
<path opacity="0.5" d="M74.5152 189.404C75.0845 186.992 73.5906 184.575 71.1784 184.006C68.7663 183.436 66.3493 184.93 65.78 187.342C65.2107 189.755 66.7046 192.172 69.1167 192.741C71.5289 193.31 73.9459 191.816 74.5152 189.404Z" fill="white"/>
<g opacity="0.8">
<path d="M71.172 186.39C71.0092 186.304 70.8362 186.239 70.6572 186.196C70.5139 186.173 70.3837 186.099 70.2903 185.988C70.197 185.877 70.1466 185.736 70.1485 185.59V185.433C70.1455 185.339 70.1645 185.246 70.2038 185.16C70.2432 185.075 70.302 185 70.3755 184.941C70.449 184.882 70.5351 184.841 70.6271 184.822C70.7191 184.802 70.8144 184.804 70.9055 184.827C71.2439 184.9 71.5702 185.02 71.8745 185.185C71.9598 185.226 72.0343 185.286 72.092 185.362C72.1497 185.437 72.189 185.524 72.2066 185.617C72.2243 185.71 72.2199 185.806 72.1938 185.897C72.1676 185.988 72.1205 186.072 72.0562 186.142L71.9593 186.257C71.8665 186.371 71.7355 186.447 71.5907 186.471C71.4459 186.496 71.2971 186.467 71.172 186.39Z" fill="white"/>
</g>
<g opacity="0.8">
<path d="M70.1485 192.022C69.315 192.024 68.5063 191.739 67.858 191.215C67.2097 190.691 66.7611 189.961 66.5875 189.145C66.5628 189.054 66.5599 188.958 66.579 188.865C66.5982 188.772 66.6389 188.685 66.6978 188.611C66.7567 188.537 66.8322 188.478 66.9182 188.438C67.0042 188.398 67.0984 188.379 67.1931 188.382H67.3445C67.4886 188.388 67.6267 188.441 67.7365 188.535C67.8464 188.628 67.9216 188.756 67.9501 188.897C68.0641 189.391 68.3421 189.831 68.7386 190.146C69.1351 190.462 69.6267 190.633 70.1333 190.633C70.6399 190.633 71.1316 190.462 71.5281 190.146C71.9246 189.831 72.2025 189.391 72.3166 188.897C72.346 188.756 72.4215 188.629 72.5312 188.536C72.6408 188.443 72.7784 188.389 72.9222 188.382H73.0736C73.1683 188.379 73.2624 188.398 73.3485 188.438C73.4345 188.478 73.51 188.537 73.5689 188.611C73.6278 188.685 73.6685 188.772 73.6876 188.865C73.7068 188.958 73.7039 189.054 73.6792 189.145C73.5067 189.956 73.0625 190.682 72.4204 191.206C71.7783 191.729 70.9767 192.017 70.1485 192.022Z" fill="white"/>
</g>
<path d="M181.563 192.658V184.107C181.563 183.8 181.441 183.506 181.225 183.289C181.008 183.072 180.713 182.95 180.407 182.95H171.855C171.627 182.95 171.403 183.018 171.213 183.145C171.023 183.272 170.875 183.453 170.787 183.664C170.7 183.875 170.677 184.108 170.722 184.332C170.766 184.557 170.876 184.763 171.038 184.924L179.589 193.476C179.751 193.637 179.957 193.747 180.181 193.792C180.405 193.836 180.638 193.814 180.849 193.726C181.06 193.639 181.241 193.49 181.368 193.3C181.495 193.11 181.563 192.887 181.563 192.658Z" fill="#263238"/>
<path opacity="0.5" d="M181.563 192.658V184.107C181.563 183.8 181.441 183.506 181.225 183.289C181.008 183.072 180.713 182.95 180.407 182.95H171.855C171.627 182.95 171.403 183.018 171.213 183.145C171.023 183.272 170.875 183.453 170.787 183.664C170.7 183.875 170.677 184.108 170.722 184.332C170.766 184.557 170.876 184.763 171.038 184.924L179.589 193.476C179.751 193.637 179.957 193.747 180.181 193.792C180.405 193.836 180.638 193.814 180.849 193.726C181.06 193.639 181.241 193.49 181.368 193.3C181.495 193.11 181.563 192.887 181.563 192.658Z" fill="white"/>
<path d="M180.272 190.096C181.22 187.806 180.133 185.181 177.843 184.232C175.553 183.284 172.928 184.371 171.98 186.661C171.031 188.951 172.119 191.576 174.408 192.524C176.698 193.473 179.323 192.385 180.272 190.096Z" fill="#407BFF"/>
<path opacity="0.5" d="M180.272 190.096C181.22 187.806 180.133 185.181 177.843 184.232C175.553 183.284 172.928 184.371 171.98 186.661C171.031 188.951 172.119 191.576 174.408 192.524C176.698 193.473 179.323 192.385 180.272 190.096Z" fill="white"/>
<g opacity="0.8">
<path d="M175.102 186.39C175.264 186.304 175.437 186.239 175.616 186.196C175.758 186.169 175.886 186.094 175.98 185.984C176.074 185.874 176.127 185.735 176.131 185.59V185.433C176.134 185.338 176.115 185.244 176.076 185.158C176.036 185.072 175.977 184.997 175.902 184.938C175.828 184.879 175.741 184.838 175.648 184.819C175.555 184.8 175.459 184.803 175.368 184.827C175.03 184.9 174.703 185.02 174.399 185.185C174.314 185.226 174.239 185.286 174.182 185.362C174.124 185.437 174.085 185.524 174.067 185.617C174.049 185.71 174.054 185.806 174.08 185.897C174.106 185.988 174.153 186.072 174.217 186.142L174.314 186.257C174.407 186.371 174.538 186.447 174.683 186.471C174.828 186.496 174.976 186.467 175.102 186.39Z" fill="white"/>
</g>
<g opacity="0.8">
<path d="M176.131 192.022C176.963 192.022 177.771 191.737 178.418 191.213C179.065 190.69 179.513 189.96 179.686 189.145C179.711 189.054 179.714 188.958 179.694 188.865C179.675 188.772 179.635 188.685 179.576 188.611C179.517 188.537 179.441 188.478 179.355 188.438C179.269 188.398 179.175 188.379 179.08 188.382H178.929C178.785 188.389 178.648 188.443 178.538 188.536C178.428 188.629 178.353 188.756 178.323 188.897C178.209 189.391 177.931 189.831 177.535 190.146C177.138 190.462 176.647 190.633 176.14 190.633C175.633 190.633 175.142 190.462 174.745 190.146C174.349 189.831 174.071 189.391 173.957 188.897C173.928 188.756 173.853 188.628 173.743 188.535C173.633 188.441 173.495 188.388 173.351 188.382H173.206C173.111 188.379 173.017 188.398 172.931 188.438C172.845 188.478 172.769 188.537 172.711 188.611C172.652 188.685 172.611 188.772 172.592 188.865C172.573 188.958 172.576 189.054 172.6 189.145C172.773 189.956 173.217 190.682 173.859 191.206C174.501 191.729 175.303 192.017 176.131 192.022Z" fill="white"/>
</g>
<path opacity="0.5" d="M158.817 167.41L176.985 163.116C177.994 162.876 178.872 162.256 179.436 161.385C180 160.514 180.206 159.46 180.013 158.441L178.929 152.615C178.816 152.012 178.566 151.443 178.199 150.951C177.832 150.459 177.358 150.058 176.812 149.777C176.266 149.497 175.664 149.345 175.05 149.333C174.437 149.321 173.829 149.449 173.273 149.708L161.203 155.31C160.189 155.779 159.295 156.471 158.586 157.334C157.877 158.197 157.372 159.209 157.109 160.294L156.055 164.624C155.962 165.006 155.968 165.406 156.073 165.785C156.179 166.164 156.379 166.51 156.656 166.79C156.933 167.069 157.277 167.273 157.656 167.381C158.034 167.49 158.433 167.5 158.817 167.41Z" fill="white"/>
<path opacity="0.5" d="M163.595 165.018C166.073 165.018 168.082 163.009 168.082 160.53C168.082 158.052 166.073 156.043 163.595 156.043C161.116 156.043 159.107 158.052 159.107 160.53C159.107 163.009 161.116 165.018 163.595 165.018Z" fill="white"/>
<g opacity="0.9">
<path d="M162.565 158.532C162.731 158.45 162.906 158.387 163.086 158.344C163.229 158.321 163.36 158.247 163.453 158.136C163.546 158.024 163.597 157.883 163.595 157.738V157.587C163.598 157.493 163.579 157.399 163.539 157.314C163.5 157.229 163.441 157.153 163.368 157.095C163.294 157.036 163.208 156.995 163.116 156.975C163.024 156.956 162.929 156.958 162.838 156.981C162.496 157.049 162.167 157.17 161.863 157.339C161.778 157.38 161.705 157.44 161.648 157.515C161.591 157.59 161.552 157.676 161.535 157.769C161.517 157.861 161.521 157.956 161.546 158.046C161.572 158.137 161.618 158.22 161.681 158.289L161.784 158.411C161.878 158.521 162.009 158.594 162.152 158.616C162.295 158.638 162.442 158.608 162.565 158.532Z" fill="white"/>
</g>
<g opacity="0.9">
<path d="M163.595 164.164C164.428 164.165 165.237 163.881 165.885 163.357C166.534 162.833 166.982 162.102 167.156 161.287C167.179 161.196 167.181 161.101 167.162 161.009C167.142 160.917 167.101 160.831 167.042 160.757C166.984 160.684 166.909 160.625 166.823 160.586C166.738 160.546 166.644 160.527 166.55 160.53H166.399C166.253 160.529 166.111 160.58 166 160.674C165.888 160.769 165.815 160.901 165.793 161.045C165.677 161.537 165.397 161.976 165 162.289C164.604 162.603 164.113 162.774 163.607 162.774C163.101 162.774 162.61 162.603 162.213 162.289C161.817 161.976 161.537 161.537 161.421 161.045C161.399 160.901 161.325 160.769 161.214 160.674C161.103 160.58 160.961 160.529 160.815 160.53H160.664C160.57 160.527 160.476 160.546 160.391 160.586C160.305 160.625 160.23 160.684 160.171 160.757C160.113 160.831 160.072 160.917 160.052 161.009C160.032 161.101 160.034 161.196 160.058 161.287C160.231 162.098 160.676 162.826 161.319 163.349C161.963 163.872 162.766 164.16 163.595 164.164Z" fill="white"/>
</g>
<path opacity="0.5" d="M177.802 158.216C178.751 155.927 177.663 153.301 175.374 152.353C173.084 151.405 170.459 152.492 169.51 154.782C168.562 157.071 169.649 159.697 171.939 160.645C174.229 161.593 176.854 160.506 177.802 158.216Z" fill="white"/>
<g opacity="0.9">
<path d="M172.6 154.498C172.765 154.414 172.94 154.351 173.121 154.31C173.262 154.282 173.389 154.206 173.481 154.096C173.573 153.986 173.626 153.848 173.63 153.705V153.553C173.633 153.459 173.614 153.366 173.574 153.281C173.535 153.195 173.476 153.12 173.403 153.061C173.329 153.002 173.243 152.962 173.151 152.942C173.059 152.922 172.964 152.924 172.873 152.948C172.533 153.021 172.205 153.142 171.898 153.305C171.812 153.346 171.738 153.407 171.68 153.482C171.622 153.557 171.583 153.645 171.566 153.738C171.548 153.831 171.552 153.927 171.578 154.018C171.605 154.109 171.652 154.193 171.716 154.262L171.819 154.377C171.913 154.488 172.044 154.561 172.187 154.583C172.33 154.605 172.477 154.575 172.6 154.498Z" fill="white"/>
</g>
<g opacity="0.9">
<path d="M173.654 160.13C174.487 160.132 175.296 159.847 175.944 159.323C176.593 158.8 177.041 158.069 177.215 157.254C177.239 157.163 177.241 157.067 177.221 156.975C177.201 156.883 177.16 156.797 177.102 156.724C177.043 156.65 176.968 156.592 176.882 156.552C176.797 156.513 176.703 156.494 176.609 156.497H176.458C176.313 156.495 176.172 156.545 176.061 156.639C175.95 156.732 175.876 156.862 175.852 157.005C175.736 157.498 175.456 157.936 175.06 158.25C174.663 158.563 174.172 158.734 173.666 158.734C173.16 158.734 172.669 158.563 172.273 158.25C171.876 157.936 171.596 157.498 171.48 157.005C171.457 156.862 171.383 156.732 171.272 156.639C171.16 156.545 171.019 156.495 170.874 156.497H170.723C170.629 156.494 170.535 156.513 170.45 156.552C170.364 156.592 170.289 156.65 170.231 156.724C170.172 156.797 170.131 156.883 170.111 156.975C170.092 157.067 170.094 157.163 170.117 157.254C170.29 158.065 170.735 158.792 171.378 159.316C172.022 159.839 172.825 160.127 173.654 160.13Z" fill="white"/>
</g>
<path d="M172.304 136.748C167.743 135.228 161.954 133.405 159.192 132.981C150.931 131.727 127.755 132.726 123.097 132.944C118.446 132.726 95.2391 131.733 87.0088 132.981C84.1261 133.423 77.9246 135.403 73.2856 136.948L73.1403 137.317H172.528L172.304 136.748Z" fill="#263238"/>
<g opacity="0.2">
<path d="M114.358 109.223H100.871L89.2313 137.317H102.724L114.358 109.223Z" fill="white"/>
<path d="M167.507 124.557L162.232 111.148C162.01 110.581 161.622 110.093 161.119 109.749C160.615 109.406 160.019 109.222 159.41 109.223H123.176L111.542 137.317H162.22L167.507 124.557Z" fill="white"/>
</g>
<path d="M148.812 170.396V172.6H96.8561V170.371H92.9136V204.286C92.9136 204.715 92.9982 205.141 93.1625 205.537C93.3269 205.934 93.5677 206.295 93.8714 206.598C94.1751 206.902 94.5356 207.143 94.9324 207.307C95.3292 207.472 95.7544 207.556 96.1839 207.556H98.8123C99.4885 207.556 100.137 207.287 100.615 206.809C101.093 206.331 101.362 205.683 101.362 205.006V202.754H96.8561V190.278H148.812V202.754H144.306V205.006C144.306 205.683 144.575 206.331 145.053 206.809C145.531 207.287 146.179 207.556 146.856 207.556H149.484C150.351 207.556 151.183 207.212 151.796 206.598C152.41 205.985 152.754 205.153 152.754 204.286V170.371L148.812 170.396ZM96.8561 186.008V176.924H148.812V186.008H96.8561Z" fill="#263238"/>
<path opacity="0.6" d="M148.812 170.396V172.6H96.8561V170.371H92.9136V204.286C92.9136 204.715 92.9982 205.141 93.1625 205.537C93.3269 205.934 93.5677 206.295 93.8714 206.598C94.1751 206.902 94.5356 207.143 94.9324 207.307C95.3292 207.472 95.7544 207.556 96.1839 207.556H98.8123C99.4885 207.556 100.137 207.287 100.615 206.809C101.093 206.331 101.362 205.683 101.362 205.006V202.754H96.8561V190.278H148.812V202.754H144.306V205.006C144.306 205.683 144.575 206.331 145.053 206.809C145.531 207.287 146.179 207.556 146.856 207.556H149.484C150.351 207.556 151.183 207.212 151.796 206.598C152.41 205.985 152.754 205.153 152.754 204.286V170.371L148.812 170.396ZM96.8561 186.008V176.924H148.812V186.008H96.8561Z" fill="black"/>
<path d="M194.051 103.506C194.11 104.016 194.26 104.513 194.493 104.971C194.846 105.66 195.411 106.218 196.104 106.564C196.71 106.857 197.381 106.993 198.054 106.958C198.494 106.935 198.931 106.864 199.356 106.746L199.035 106.824C200.773 106.491 202.471 105.971 204.098 105.274C205.636 104.668 207.126 103.972 208.543 103.251C209.96 102.531 211.39 101.786 212.782 101.004C214.175 100.223 215.526 99.4237 216.901 98.5395C217.586 98.1203 218.076 97.4461 218.264 96.6653C218.452 95.8845 218.322 95.061 217.903 94.3759C217.484 93.6909 216.81 93.2004 216.029 93.0125C215.248 92.8245 214.424 92.9544 213.739 93.3736H213.703C212.419 94.1246 211.087 94.924 209.76 95.675C208.434 96.4259 207.108 97.1769 205.782 97.9036C204.455 98.6304 203.117 99.3208 201.791 99.9506C200.84 100.393 199.853 100.829 198.968 101.162C198.968 101.083 198.968 101.004 198.968 100.926C199.029 100.157 199.162 99.3329 199.302 98.5032C199.441 97.6735 199.622 96.8075 199.774 95.9899V95.9172C199.838 95.5716 199.781 95.2145 199.611 94.9066C199.442 94.5986 199.171 94.3589 198.844 94.2283C198.518 94.0976 198.157 94.0841 197.822 94.1899C197.486 94.2958 197.198 94.5146 197.006 94.8089C196.491 95.602 196.024 96.4251 195.607 97.2738C195.173 98.1435 194.805 99.0443 194.505 99.9688C194.339 100.476 194.207 100.994 194.111 101.519C193.992 102.175 193.972 102.844 194.051 103.506ZM199.053 102.67C199.01 102.578 198.984 102.48 198.974 102.379L199.023 102.458C199.102 102.64 199.071 102.694 199.053 102.67Z" fill="#FF8B7B"/>
<path d="M196.873 96.977L194.184 93.7552L198.974 92.659C198.974 92.659 201.215 95.3964 199.362 96.7711L196.873 96.977Z" fill="#FF8B7B"/>
<path d="M194.753 90.9814L196.655 90.2668C196.964 90.1381 197.311 90.1351 197.622 90.2584C197.933 90.3817 198.184 90.6216 198.32 90.9269L198.975 92.659L194.184 93.7552L193.936 92.2593C193.906 91.985 193.971 91.7089 194.12 91.4765C194.268 91.2441 194.492 91.0695 194.753 90.9814Z" fill="#FF8B7B"/>
<path d="M217.113 91.1268C212.456 91.1268 205.703 96.8922 205.703 96.8922L209.942 103.596C212.316 102.975 214.515 101.814 216.368 100.205C217.343 99.3692 221.843 91.1389 217.113 91.1268Z" fill="#407BFF"/>
<path opacity="0.2" d="M214.43 98.4608C211.468 100.962 209.827 101.786 208.925 102.016L209.924 103.596C212.298 102.975 214.497 101.814 216.35 100.205C216.547 100.011 216.722 99.7959 216.87 99.563C217.046 97.6614 216.531 96.6803 214.43 98.4608Z" fill="black"/>
<path d="M215.193 213.358L211.353 213.297L211.759 204.377L215.599 204.437L215.193 213.358Z" fill="#FF8B7B"/>
<path d="M211.202 212.135L215.399 212.201C215.474 212.2 215.547 212.227 215.603 212.276C215.66 212.325 215.697 212.393 215.708 212.468L216.247 215.895C216.256 215.98 216.247 216.066 216.221 216.148C216.195 216.229 216.152 216.304 216.095 216.367C216.037 216.431 215.967 216.482 215.889 216.516C215.811 216.551 215.726 216.568 215.641 216.568C214.133 216.519 211.953 216.398 210.051 216.368C207.829 216.331 208.047 216.422 205.442 216.368C203.862 216.368 203.529 214.745 204.195 214.612C207.223 214.006 207.556 213.97 210.251 212.407C210.538 212.232 210.866 212.138 211.202 212.135Z" fill="#263238"/>
<path d="M210.524 212.474C210.54 212.469 210.554 212.46 210.565 212.447C210.576 212.434 210.582 212.418 210.584 212.401C210.585 212.382 210.58 212.364 210.57 212.348C210.561 212.331 210.547 212.318 210.53 212.31C210.354 212.213 208.779 211.408 208.325 211.662C208.282 211.685 208.246 211.719 208.22 211.76C208.195 211.802 208.181 211.85 208.18 211.898C208.174 211.983 208.188 212.067 208.22 212.145C208.253 212.223 208.303 212.292 208.368 212.347C208.798 212.728 209.9 212.595 210.512 212.48L210.524 212.474ZM208.446 211.808C208.737 211.711 209.585 212.044 210.203 212.347C209.361 212.474 208.725 212.425 208.483 212.213C208.441 212.176 208.409 212.13 208.388 212.079C208.367 212.028 208.358 211.972 208.362 211.917C208.36 211.897 208.365 211.877 208.375 211.86C208.384 211.843 208.399 211.829 208.416 211.82L208.446 211.808Z" fill="#263238"/>
<path d="M210.524 212.474C210.535 212.464 210.545 212.452 210.551 212.439C210.557 212.425 210.56 212.41 210.56 212.395C210.5 211.844 210.274 211.325 209.912 210.905C209.843 210.845 209.762 210.799 209.675 210.771C209.587 210.743 209.495 210.733 209.403 210.742C209.149 210.742 209.082 210.887 209.07 210.99C209.016 211.42 209.96 212.268 210.433 212.486C210.463 212.494 210.496 212.489 210.524 212.474ZM209.355 210.923H209.452C209.519 210.917 209.587 210.924 209.652 210.945C209.717 210.966 209.776 211 209.827 211.044C210.125 211.385 210.315 211.807 210.372 212.256C209.888 211.959 209.24 211.299 209.276 211.044C209.276 210.99 209.282 210.954 209.355 210.923Z" fill="#263238"/>
<path d="M221.049 166.544C221.267 159.749 222.896 153.959 223.914 149.399C225.918 140.424 227.747 134.507 226.578 128.057L212.565 128.221C212.565 128.221 210.669 157.478 210.505 167.034C210.336 176.991 210.651 209.325 210.651 209.325L216.84 209.415C216.84 209.415 219.747 192.501 220.413 179.504C220.656 174.695 220.934 170.178 221.049 166.544Z" fill="#263238"/>
<path d="M210.324 208.616L210.445 211.123L217.034 211.39L217.306 208.882L210.324 208.616Z" fill="#263238"/>
<path opacity="0.4" d="M223.914 149.369C224.477 146.868 225.016 144.603 225.488 142.501L223.835 136.621L221.413 138.098C220.459 145.584 220.518 153.163 221.588 160.633C222.206 156.339 223.205 152.548 223.914 149.369Z" fill="black"/>
<path d="M242.179 213.358L238.339 213.297L237.516 204.377L241.355 204.437L242.179 213.358Z" fill="#FF8B7B"/>
<path d="M238.194 212.135L242.391 212.201C242.466 212.2 242.539 212.227 242.596 212.276C242.653 212.325 242.69 212.393 242.7 212.468L243.239 215.895C243.248 215.98 243.24 216.066 243.213 216.148C243.187 216.229 243.144 216.304 243.087 216.367C243.03 216.431 242.96 216.482 242.882 216.516C242.803 216.551 242.719 216.568 242.633 216.568C241.125 216.519 238.939 216.398 237.037 216.368C234.815 216.331 235.039 216.422 232.429 216.368C230.854 216.368 230.521 214.745 231.187 214.612C234.215 214.006 234.542 213.97 237.243 212.407C237.53 212.231 237.858 212.137 238.194 212.135Z" fill="#263238"/>
<path d="M237.516 212.474C237.532 212.47 237.546 212.46 237.556 212.447C237.566 212.434 237.571 212.418 237.57 212.401C237.573 212.383 237.57 212.364 237.561 212.347C237.553 212.331 237.539 212.318 237.522 212.31C237.346 212.213 235.772 211.408 235.311 211.662C235.269 211.685 235.233 211.719 235.209 211.761C235.184 211.803 235.172 211.85 235.172 211.898C235.165 211.982 235.178 212.066 235.209 212.144C235.241 212.222 235.29 212.291 235.354 212.347C235.79 212.728 236.886 212.595 237.504 212.48L237.516 212.474ZM235.438 211.808C235.723 211.711 236.577 212.044 237.195 212.347C236.353 212.474 235.717 212.425 235.475 212.213C235.432 212.177 235.399 212.132 235.378 212.08C235.357 212.028 235.348 211.972 235.354 211.917C235.353 211.897 235.357 211.877 235.367 211.86C235.376 211.843 235.391 211.829 235.408 211.82L235.438 211.808Z" fill="#263238"/>
<path d="M237.516 212.474C237.523 212.462 237.526 212.448 237.526 212.434C237.526 212.421 237.523 212.407 237.516 212.395C237.459 211.844 237.235 211.324 236.874 210.905C236.804 210.844 236.722 210.799 236.633 210.77C236.545 210.742 236.452 210.733 236.359 210.742C236.111 210.742 236.044 210.887 236.032 210.99C235.971 211.42 236.922 212.268 237.395 212.486C237.414 212.495 237.436 212.498 237.457 212.496C237.478 212.494 237.498 212.486 237.516 212.474ZM236.347 210.923H236.438C236.505 210.916 236.574 210.923 236.638 210.944C236.703 210.965 236.763 210.999 236.813 211.044C237.116 211.383 237.308 211.805 237.364 212.256C236.88 211.959 236.232 211.299 236.262 211.044C236.268 210.99 236.274 210.954 236.347 210.923Z" fill="#263238"/>
<path d="M236.232 208.616L236.759 211.123L243.554 211.39L243.826 208.882L236.232 208.616Z" fill="#263238"/>
<path d="M237.134 166.544C236.359 162.171 235.542 153.535 235.875 148.824C236.48 140.073 236.674 134.168 234.361 127.839L220.25 128.221C220.25 128.221 223.12 155.528 226.373 167.034C229.758 179.001 237.043 209.325 237.043 209.325L243.245 209.415C243.245 209.415 242.385 190.405 239.46 176.839C238.648 173.006 237.595 169.112 237.134 166.544Z" fill="#263238"/>
<path d="M218.16 91.2479C222.429 90.4103 226.794 90.184 231.127 90.5757C232.256 90.6392 233.328 91.0991 234.152 91.8745C234.976 92.6499 235.5 93.6911 235.632 94.815C236.335 100.266 237.389 110.961 234.839 128.045C232.792 128.869 226.79 129.347 222.024 129.42C221.503 129.42 220.256 128.33 220.256 128.33C220.256 128.33 219.099 129.414 218.439 129.396C215.284 129.293 212.776 128.972 212.207 128.402C210.996 125.447 210.293 117.737 213.848 110.476C213.957 106.303 213.212 101.683 213.243 97.2132C213.274 95.8114 213.777 94.4609 214.669 93.379C215.56 92.2971 216.79 91.5465 218.16 91.2479Z" fill="#407BFF"/>
<path d="M235.227 126.67C222.448 129.626 213.885 127.984 211.971 127.53L211.759 130.019C214.73 130.629 217.757 130.917 220.789 130.879C225.719 130.849 230.63 130.27 235.433 129.153L235.227 126.67Z" fill="#263238"/>
<path opacity="0.5" d="M235.227 126.67C222.448 129.626 213.885 127.984 211.971 127.53L211.759 130.019C214.73 130.629 217.757 130.917 220.789 130.879C225.719 130.849 230.63 130.27 235.433 129.153L235.227 126.67Z" fill="black"/>
<path d="M223.12 128.027H218.045V131.146H223.12V128.027Z" fill="#263238"/>
<path opacity="0.6" d="M223.12 128.027H218.045V131.146H223.12V128.027Z" fill="white"/>
<path d="M231.508 127.243L230.013 127.481L230.476 130.388L231.971 130.149L231.508 127.243Z" fill="#263238"/>
<path d="M215.331 127.893L213.826 127.731L213.511 130.657L215.016 130.819L215.331 127.893Z" fill="#263238"/>
<path d="M232.749 130.486H232.283C232.283 130.164 232.156 129.856 231.928 129.629C231.701 129.402 231.393 129.274 231.072 129.274C230.751 129.274 230.443 129.402 230.215 129.629C229.988 129.856 229.861 130.164 229.861 130.486H229.394C229.381 130.256 229.414 130.027 229.492 129.811C229.57 129.595 229.692 129.398 229.849 129.23C230.007 129.063 230.197 128.93 230.407 128.839C230.618 128.748 230.845 128.701 231.075 128.701C231.305 128.701 231.532 128.748 231.743 128.839C231.953 128.93 232.143 129.063 232.301 129.23C232.458 129.398 232.58 129.595 232.658 129.811C232.736 130.027 232.769 130.256 232.756 130.486H232.749Z" fill="#263238"/>
<g opacity="0.7">
<path d="M232.749 130.486H232.283C232.283 130.164 232.156 129.856 231.928 129.629C231.701 129.402 231.393 129.274 231.072 129.274C230.751 129.274 230.443 129.402 230.215 129.629C229.988 129.856 229.861 130.164 229.861 130.486H229.394C229.381 130.256 229.414 130.027 229.492 129.811C229.57 129.595 229.692 129.398 229.849 129.23C230.007 129.063 230.197 128.93 230.407 128.839C230.618 128.748 230.845 128.701 231.075 128.701C231.305 128.701 231.532 128.748 231.743 128.839C231.953 128.93 232.143 129.063 232.301 129.23C232.458 129.398 232.58 129.595 232.658 129.811C232.736 130.027 232.769 130.256 232.756 130.486H232.749Z" fill="white"/>
</g>
<path d="M233.767 131.025L233.591 130.522C233.546 130.398 233.464 130.29 233.356 130.214C233.247 130.138 233.118 130.098 232.986 130.098H231.89C231.756 130.092 231.624 130.13 231.515 130.207C231.405 130.284 231.324 130.394 231.284 130.522L231.108 131.025C230.557 131.32 230.121 131.79 229.868 132.362C229.615 132.933 229.56 133.573 229.712 134.179C229.864 134.785 230.214 135.323 230.707 135.708C231.2 136.092 231.807 136.301 232.432 136.301C233.057 136.301 233.664 136.092 234.156 135.708C234.649 135.323 234.999 134.785 235.151 134.179C235.303 133.573 235.249 132.933 234.996 132.362C234.743 131.79 234.306 131.32 233.755 131.025H233.767ZM232.441 135.361C232.069 135.361 231.706 135.251 231.398 135.044C231.089 134.838 230.848 134.545 230.706 134.202C230.564 133.859 230.527 133.481 230.599 133.117C230.672 132.753 230.851 132.418 231.113 132.156C231.376 131.893 231.71 131.715 232.075 131.642C232.439 131.57 232.816 131.607 233.159 131.749C233.502 131.891 233.795 132.132 234.002 132.44C234.208 132.749 234.318 133.112 234.318 133.483C234.318 133.732 234.269 133.977 234.174 134.206C234.078 134.435 233.938 134.643 233.762 134.817C233.586 134.992 233.377 135.13 233.147 135.223C232.917 135.316 232.671 135.363 232.423 135.361H232.441Z" fill="#263238"/>
<path opacity="0.5" d="M233.767 131.025L233.591 130.522C233.546 130.398 233.464 130.29 233.356 130.214C233.247 130.138 233.118 130.098 232.986 130.098H231.89C231.756 130.092 231.624 130.13 231.515 130.207C231.405 130.284 231.324 130.394 231.284 130.522L231.108 131.025C230.557 131.32 230.121 131.79 229.868 132.362C229.615 132.933 229.56 133.573 229.712 134.179C229.864 134.785 230.214 135.323 230.707 135.708C231.2 136.092 231.807 136.301 232.432 136.301C233.057 136.301 233.664 136.092 234.156 135.708C234.649 135.323 234.999 134.785 235.151 134.179C235.303 133.573 235.249 132.933 234.996 132.362C234.743 131.79 234.306 131.32 233.755 131.025H233.767ZM232.441 135.361C232.069 135.361 231.706 135.251 231.398 135.044C231.089 134.838 230.848 134.545 230.706 134.202C230.564 133.859 230.527 133.481 230.599 133.117C230.672 132.753 230.851 132.418 231.113 132.156C231.376 131.893 231.71 131.715 232.075 131.642C232.439 131.57 232.816 131.607 233.159 131.749C233.502 131.891 233.795 132.132 234.002 132.44C234.208 132.749 234.318 133.112 234.318 133.483C234.318 133.732 234.269 133.977 234.174 134.206C234.078 134.435 233.938 134.643 233.762 134.817C233.586 134.992 233.377 135.13 233.147 135.223C232.917 135.316 232.671 135.363 232.423 135.361H232.441Z" fill="white"/>
<path d="M231.472 131.025L231.296 130.522C231.251 130.398 231.169 130.29 231.06 130.214C230.952 130.138 230.823 130.098 230.69 130.098H229.594C229.462 130.098 229.333 130.138 229.224 130.214C229.116 130.29 229.034 130.398 228.989 130.522L228.819 131.025C228.268 131.32 227.831 131.79 227.578 132.362C227.325 132.933 227.271 133.573 227.423 134.179C227.575 134.785 227.925 135.323 228.418 135.708C228.91 136.092 229.517 136.301 230.142 136.301C230.767 136.301 231.374 136.092 231.867 135.708C232.36 135.323 232.71 134.785 232.862 134.179C233.014 133.573 232.959 132.933 232.706 132.362C232.453 131.79 232.017 131.32 231.466 131.025H231.472ZM230.133 135.361C229.762 135.361 229.399 135.251 229.09 135.044C228.782 134.838 228.541 134.545 228.399 134.202C228.257 133.859 228.22 133.481 228.292 133.117C228.364 132.753 228.543 132.418 228.806 132.156C229.068 131.893 229.403 131.715 229.767 131.642C230.131 131.57 230.509 131.607 230.852 131.749C231.195 131.891 231.488 132.132 231.694 132.44C231.901 132.749 232.011 133.112 232.011 133.483C232.011 133.73 231.962 133.974 231.868 134.202C231.773 134.43 231.635 134.637 231.461 134.811C231.286 134.985 231.08 135.124 230.852 135.218C230.624 135.312 230.38 135.361 230.133 135.361Z" fill="#263238"/>
<path opacity="0.7" d="M231.472 131.025L231.296 130.522C231.251 130.398 231.169 130.29 231.06 130.214C230.952 130.138 230.823 130.098 230.69 130.098H229.594C229.462 130.098 229.333 130.138 229.224 130.214C229.116 130.29 229.034 130.398 228.989 130.522L228.819 131.025C228.268 131.32 227.831 131.79 227.578 132.362C227.325 132.933 227.271 133.573 227.423 134.179C227.575 134.785 227.925 135.323 228.418 135.708C228.91 136.092 229.517 136.301 230.142 136.301C230.767 136.301 231.374 136.092 231.867 135.708C232.36 135.323 232.71 134.785 232.862 134.179C233.014 133.573 232.959 132.933 232.706 132.362C232.453 131.79 232.017 131.32 231.466 131.025H231.472ZM230.133 135.361C229.762 135.361 229.399 135.251 229.09 135.044C228.782 134.838 228.541 134.545 228.399 134.202C228.257 133.859 228.22 133.481 228.292 133.117C228.364 132.753 228.543 132.418 228.806 132.156C229.068 131.893 229.403 131.715 229.767 131.642C230.131 131.57 230.509 131.607 230.852 131.749C231.195 131.891 231.488 132.132 231.694 132.44C231.901 132.749 232.011 133.112 232.011 133.483C232.011 133.73 231.962 133.974 231.868 134.202C231.773 134.43 231.635 134.637 231.461 134.811C231.286 134.985 231.08 135.124 230.852 135.218C230.624 135.312 230.38 135.361 230.133 135.361Z" fill="white"/>
<path d="M214.664 126.338L207.505 143.622C207.35 143.996 207.527 144.424 207.901 144.579L208.237 144.718C208.611 144.873 209.04 144.695 209.195 144.322L216.354 127.038C216.508 126.664 216.331 126.236 215.957 126.081L215.621 125.942C215.247 125.787 214.819 125.964 214.664 126.338Z" fill="white"/>
<path d="M211.602 132.309L207.889 130.764C207.8 130.728 207.719 130.674 207.651 130.606C207.582 130.538 207.528 130.458 207.491 130.369C207.454 130.28 207.435 130.184 207.434 130.088C207.434 129.992 207.453 129.896 207.489 129.807C207.566 129.63 207.709 129.489 207.887 129.415C208.066 129.341 208.267 129.341 208.446 129.414L212.165 130.952C212.344 131.027 212.486 131.17 212.559 131.349C212.633 131.528 212.633 131.73 212.558 131.909C212.522 131.998 212.468 132.079 212.4 132.147C212.332 132.216 212.252 132.27 212.163 132.307C212.074 132.344 211.979 132.363 211.882 132.364C211.786 132.364 211.691 132.345 211.602 132.309Z" fill="white"/>
<g opacity="0.5">
<path d="M214.664 126.338L207.505 143.622C207.35 143.996 207.528 144.424 207.902 144.579L208.237 144.718C208.611 144.873 209.04 144.695 209.195 144.322L216.354 127.038C216.509 126.664 216.331 126.236 215.957 126.081L215.621 125.942C215.247 125.787 214.819 125.964 214.664 126.338Z" fill="black"/>
<path d="M211.602 132.309L207.889 130.764C207.8 130.728 207.719 130.674 207.651 130.606C207.582 130.538 207.528 130.458 207.491 130.369C207.454 130.28 207.435 130.184 207.434 130.088C207.434 129.992 207.453 129.896 207.49 129.807C207.566 129.63 207.709 129.489 207.888 129.415C208.067 129.341 208.267 129.341 208.446 129.414L212.165 130.952C212.344 131.027 212.486 131.17 212.559 131.349C212.633 131.528 212.633 131.73 212.559 131.909C212.522 131.998 212.468 132.079 212.4 132.147C212.333 132.216 212.252 132.27 212.163 132.307C212.074 132.344 211.979 132.363 211.882 132.364C211.786 132.364 211.691 132.345 211.602 132.309Z" fill="black"/>
</g>
<path d="M222.908 91.6597C224.631 91.6353 226.335 91.3031 227.941 90.6786L229.437 90.1154C228.358 87.5598 227.838 84.8034 227.911 82.0305L222.345 87.1055C222.951 88.1108 222.854 89.7763 220.758 91.0178C220.716 91.0178 220.68 91.0783 220.637 91.1086C220.952 91.4478 221.6 91.6961 222.908 91.6597Z" fill="#FF8B7B"/>
<path d="M221.201 90.4061C221.201 90.4061 220.801 91.4538 223.223 91.3388C225.646 91.2237 229.558 89.5643 229.558 89.5643L230.466 90.5272C230.466 90.5272 227.983 93.7006 224.38 93.7552L222.672 91.9383L219.995 93.7552C219.995 93.7552 218.263 93.4039 220.207 90.6786L221.201 90.4061Z" fill="#407BFF"/>
<path opacity="0.2" d="M221.201 90.4061C221.201 90.4061 220.801 91.4538 223.223 91.3388C225.646 91.2237 229.558 89.5643 229.558 89.5643L230.466 90.5272C230.466 90.5272 227.983 93.7006 224.38 93.7552L222.672 91.9383L219.995 93.7552C219.995 93.7552 218.263 93.4039 220.207 90.6786L221.201 90.4061Z" fill="black"/>
<path opacity="0.2" d="M222.339 94.4213C221.725 99.6967 221.54 105.013 221.788 110.319C221.788 110.319 219.093 117.586 219.42 124.357C219.42 124.357 216.586 120.65 220.94 110.24C220.94 110.222 220.001 96.6621 222.339 94.4213Z" fill="black"/>
<path opacity="0.2" d="M236.42 104.808C236.353 102.434 236.22 100.368 236.056 98.6061C234.797 97.6432 233.773 96.977 233.773 96.977L231.351 95.3964L230.454 97.6917C230.454 97.6917 233.422 102.749 236.42 104.808Z" fill="black"/>
<path d="M231.605 93.4766C231.989 92.7717 232.637 92.2481 233.407 92.021C234.177 91.7938 235.006 91.8817 235.711 92.2654C236.42 92.653 237.013 92.9982 237.637 93.3918C238.261 93.7855 238.848 94.173 239.454 94.603C240.665 95.4146 241.816 96.2866 242.954 97.2193C244.104 98.1626 245.196 99.1737 246.225 100.247C247.309 101.36 248.281 102.577 249.125 103.881C249.35 104.22 249.555 104.571 249.731 104.935C249.767 104.995 249.858 105.177 249.937 105.328C250.012 105.488 250.079 105.652 250.137 105.819C250.257 106.152 250.342 106.497 250.391 106.849C250.538 108.04 250.327 109.248 249.786 110.319C248.999 111.816 247.93 113.147 246.636 114.237C244.412 116.147 241.936 117.743 239.278 118.979C238.948 119.136 238.572 119.169 238.22 119.069C237.868 118.97 237.564 118.746 237.365 118.439C237.165 118.133 237.084 117.764 237.137 117.402C237.189 117.04 237.371 116.709 237.649 116.472L237.704 116.423C239.721 114.759 241.603 112.937 243.33 110.973C244.051 110.175 244.631 109.259 245.044 108.266C245.171 107.89 245.11 107.66 245.086 107.715C245.086 107.715 245.086 107.715 245.044 107.66C244.886 107.43 244.729 107.2 244.553 106.97C242.994 105.048 241.195 103.334 239.199 101.87C238.182 101.083 237.116 100.332 236.038 99.5993C235.499 99.2299 234.948 98.8726 234.397 98.5274C233.846 98.1822 233.271 97.8249 232.78 97.5342L232.719 97.4979C232.053 97.0984 231.566 96.4582 231.359 95.7098C231.152 94.9614 231.24 94.1619 231.605 93.4766Z" fill="#FF8B7B"/>
<path d="M231.26 90.8906C235.402 89.5885 243.372 96.5712 243.372 96.5712L240.174 103.905C237.63 103.474 235.239 102.398 233.228 100.78C229.388 97.5039 227.057 92.2169 231.26 90.8906Z" fill="#407BFF"/>
<path d="M239.284 115.37L235.796 117.023L238.485 120.741C238.485 120.741 241.513 118.834 240.907 116.98L239.284 115.37Z" fill="#FF8B7B"/>
<path d="M234.173 120.953L235.323 122.074C235.549 122.288 235.848 122.408 236.159 122.408C236.47 122.408 236.77 122.288 236.995 122.074L238.485 120.747L235.796 117.029L234.143 118.955C233.898 119.232 233.765 119.59 233.771 119.96C233.776 120.33 233.92 120.684 234.173 120.953Z" fill="#FF8B7B"/>
<path opacity="0.2" d="M214.43 102.367H219.42L219.287 103.294L216.283 104.275L214.43 103.294V102.367Z" fill="black"/>
<path opacity="0.2" d="M223.611 102.367H230.133L229.958 103.294L226.845 104.275L223.611 103.294V102.367Z" fill="black"/>
<path opacity="0.2" d="M227.911 82.0305L222.339 87.1055C222.525 87.4264 222.633 87.7866 222.654 88.1569C222.675 88.5273 222.609 88.8974 222.46 89.2373C223.635 89.2699 224.779 88.8591 225.664 88.0866C227.099 86.8754 227.584 85.428 227.941 83.3931C227.917 82.9692 227.911 82.5089 227.911 82.0305Z" fill="black"/>
<path d="M229.57 79.4081C229.322 83.1508 229.855 83.7504 227.953 85.6459C225.095 88.4923 220.444 89.0374 219.783 85.2462C219.178 81.8366 218.863 75.6533 222.539 74.2119C223.352 73.8942 224.233 73.7879 225.099 73.9028C225.964 74.0178 226.787 74.3503 227.489 74.8692C228.191 75.3882 228.75 76.0768 229.114 76.8705C229.478 77.6643 229.635 78.5373 229.57 79.4081Z" fill="#FF8B7B"/>
<path d="M229.334 81.9396C228.002 83.2053 227.117 80.9706 227.19 80.7708C227.511 79.8987 227.378 79.2325 226.584 77.8275C225.791 76.4224 227.62 74.1938 229.722 74.4724C231.653 74.7388 230.684 76.6526 231.139 77.9244C231.95 80.1894 230.406 80.9161 229.334 81.9396Z" fill="#263238"/>
<path d="M220.91 83.9684C222.222 83.6227 223.561 83.3917 224.913 83.278C224.634 84.138 224.047 84.8829 222.527 85.0464C221.007 85.2099 220.91 83.9684 220.91 83.9684Z" fill="white"/>
<path d="M231.266 81.9154C230.944 82.7191 230.326 83.3692 229.54 83.7322C228.541 84.1622 227.989 83.1811 228.226 82.0607C228.438 81.0554 229.213 79.6383 230.242 79.6383C231.272 79.6383 231.69 80.8919 231.266 81.9154Z" fill="#FF8B7B"/>
<path d="M224.429 79.7715C224.429 80.0925 224.265 80.1167 224.059 80.1107C223.853 80.1046 223.659 80.0501 223.672 79.7352C223.684 79.4203 223.865 79.1659 224.071 79.178C224.277 79.1901 224.441 79.4566 224.429 79.7715Z" fill="#263238"/>
<path d="M221.14 80.0016C221.14 80.3226 220.982 80.3468 220.777 80.3408C220.571 80.3347 220.371 80.2802 220.389 79.9653C220.407 79.6504 220.583 79.396 220.789 79.4081C220.995 79.4202 221.158 79.6807 221.14 80.0016Z" fill="#263238"/>
<path d="M221.746 79.8624C221.466 80.6132 221.085 81.3223 220.613 81.9699C220.782 82.0876 220.975 82.1669 221.178 82.2025C221.381 82.238 221.589 82.2289 221.788 82.1758L221.746 79.8624Z" fill="#FF5652"/>
<path d="M225.022 78.3423C225.054 78.3368 225.083 78.322 225.107 78.2999C225.125 78.2828 225.14 78.2622 225.15 78.2393C225.16 78.2164 225.165 78.1916 225.165 78.1666C225.165 78.1416 225.16 78.1169 225.15 78.0939C225.14 78.071 225.125 78.0504 225.107 78.0334C224.911 77.8075 224.665 77.631 224.388 77.5184C224.111 77.4058 223.812 77.3602 223.514 77.3854C223.468 77.3966 223.428 77.4248 223.402 77.4642C223.376 77.5036 223.366 77.5515 223.373 77.5981C223.381 77.6448 223.406 77.6868 223.443 77.7159C223.481 77.7449 223.527 77.7588 223.575 77.7548C223.811 77.7386 224.047 77.7784 224.265 77.871C224.483 77.9636 224.676 78.1064 224.828 78.2878C224.853 78.3127 224.884 78.3308 224.918 78.3403C224.952 78.3498 224.988 78.3505 225.022 78.3423Z" fill="#263238"/>
<path d="M219.232 79.3839C219.262 79.3873 219.293 79.3836 219.321 79.3731C219.35 79.3625 219.375 79.3455 219.396 79.3233C219.552 79.1473 219.747 79.0109 219.966 78.9256C220.185 78.8403 220.422 78.8085 220.655 78.8328C220.704 78.8397 220.754 78.8271 220.794 78.7976C220.833 78.7681 220.86 78.7242 220.867 78.6753C220.872 78.6514 220.871 78.6269 220.866 78.6032C220.861 78.5795 220.851 78.5571 220.836 78.5374C220.822 78.5176 220.804 78.5009 220.784 78.4882C220.763 78.4755 220.74 78.467 220.716 78.4634C220.421 78.4264 220.122 78.4623 219.844 78.5679C219.567 78.6734 219.319 78.8455 219.123 79.069C219.106 79.0864 219.092 79.1072 219.082 79.1301C219.073 79.1529 219.068 79.1775 219.068 79.2022C219.068 79.227 219.073 79.2515 219.082 79.2744C219.092 79.2972 219.106 79.318 219.123 79.3355C219.155 79.3609 219.192 79.3776 219.232 79.3839Z" fill="#263238"/>
<path d="M221.788 82.9692C221.788 82.9692 220.958 82.2848 219.971 83.278C218.984 84.2712 218.609 83.8352 218.609 83.8352C218.609 83.8352 218.845 84.7012 220.195 84.3984C220.568 84.3343 220.916 84.1661 221.198 83.9133C221.479 83.6604 221.684 83.3332 221.788 82.9692Z" fill="#263238"/>
<path d="M221.97 82.9026C221.97 82.9026 222.575 81.8791 223.944 82.5331C225.313 83.1872 225.561 82.5876 225.561 82.5876C225.561 82.5876 225.652 83.5627 224.144 83.7625C223.737 83.8368 223.318 83.7955 222.934 83.6435C222.549 83.4915 222.215 83.2348 221.97 82.9026Z" fill="#263238"/>
<path d="M221.788 85.5248C221.956 85.4028 222.162 85.3465 222.369 85.3666C222.575 85.3867 222.767 85.4818 222.908 85.6338C223.042 85.4086 223.241 85.2297 223.479 85.1214C223.718 85.0131 223.983 84.9806 224.241 85.0282C225.095 85.2402 224.422 87.9412 224.047 87.1963C224.047 87.1963 222.981 88.8557 222.805 87.6808C222.805 87.6808 221.806 88.456 221.97 87.3235C222.076 86.7187 222.013 86.0963 221.788 85.5248Z" fill="#263238"/>
<path d="M230.133 74.9448C229.99 74.0235 229.504 73.1901 228.774 72.6109C228.043 72.0318 227.121 71.7493 226.191 71.8198C223.266 71.953 220.807 73.4852 219.184 73.4247C219.091 73.4239 218.999 73.4464 218.917 73.4902C218.835 73.534 218.765 73.5976 218.714 73.6753C218.663 73.7529 218.632 73.8422 218.624 73.9349C218.616 74.0276 218.632 74.1208 218.669 74.2059C218.96 74.8782 219.493 75.5807 220.401 75.2536C220.222 75.4984 219.975 75.6859 219.692 75.7934C219.408 75.9009 219.099 75.9238 218.802 75.8592C218.802 75.8592 220.51 77.1553 223.684 75.8592C225.004 75.3203 225.846 75.4717 226.385 75.829C226.795 76.1107 227.286 76.2538 227.783 76.2375C228.281 76.2211 228.761 76.0462 229.152 75.7381L230.133 74.9448Z" fill="#263238"/>
<path d="M226.609 97.9702C226.471 98.1194 226.304 98.2385 226.118 98.3199C225.932 98.4013 225.731 98.4433 225.528 98.4433C225.325 98.4433 225.124 98.4013 224.938 98.3199C224.752 98.2385 224.585 98.1194 224.447 97.9702C224.447 98.6733 224.652 99.361 225.036 99.9501C225.42 100.539 225.966 101.004 226.609 101.289C227.252 101.004 227.798 100.539 228.182 99.9501C228.566 99.361 228.77 98.6733 228.771 97.9702C228.633 98.1194 228.466 98.2385 228.28 98.3199C228.094 98.4013 227.893 98.4433 227.69 98.4433C227.487 98.4433 227.286 98.4013 227.1 98.3199C226.914 98.2385 226.747 98.1194 226.609 97.9702Z" fill="#407BFF"/>
<path opacity="0.4" d="M226.609 97.9702C226.471 98.1194 226.304 98.2385 226.118 98.3199C225.932 98.4013 225.731 98.4433 225.528 98.4433C225.325 98.4433 225.124 98.4013 224.938 98.3199C224.752 98.2385 224.585 98.1194 224.447 97.9702C224.447 98.6733 224.652 99.361 225.036 99.9501C225.42 100.539 225.966 101.004 226.609 101.289C227.252 101.004 227.798 100.539 228.182 99.9501C228.566 99.361 228.77 98.6733 228.771 97.9702C228.633 98.1194 228.466 98.2385 228.28 98.3199C228.094 98.4013 227.893 98.4433 227.69 98.4433C227.487 98.4433 227.286 98.4013 227.1 98.3199C226.914 98.2385 226.747 98.1194 226.609 97.9702Z" fill="white"/>
<path opacity="0.2" d="M224.447 97.9702C224.585 98.1194 224.752 98.2385 224.938 98.3199C225.124 98.4013 225.325 98.4433 225.528 98.4433C225.731 98.4433 225.932 98.4013 226.118 98.3199C226.304 98.2385 226.471 98.1194 226.609 97.9702V101.289C225.966 101.004 225.42 100.539 225.036 99.9501C224.652 99.361 224.447 98.6733 224.447 97.9702Z" fill="white"/>
<path d="M231.127 90.5757L229.885 91.6597C229.885 91.6597 232.756 90.9027 234.506 92.3441L235.79 91.1328C235.79 91.1328 234.312 90.4788 231.127 90.5757Z" fill="#407BFF"/>
<path opacity="0.4" d="M231.127 90.5757L229.885 91.6597C229.885 91.6597 232.756 90.9027 234.506 92.3441L235.79 91.1328C235.79 91.1328 234.312 90.4788 231.127 90.5757Z" fill="black"/>
<path d="M219.741 90.7271L219.232 91.4477C217.695 91.0272 216.055 91.2091 214.648 91.9565L215.859 90.7452C215.859 90.7452 218.851 90.3516 219.741 90.7271Z" fill="#407BFF"/>
<path opacity="0.4" d="M219.741 90.7271L219.232 91.4477C217.695 91.0272 216.055 91.2091 214.648 91.9565L215.859 90.7452C215.859 90.7452 218.851 90.3516 219.741 90.7271Z" fill="black"/>
<path d="M189.975 91.048L187.401 89.1706L189.975 86.0941L195.547 83.2114L200.083 85.3734L203.795 89.7036L201.118 91.048H189.975Z" fill="#407BFF"/>
<path opacity="0.5" d="M189.975 91.048L187.401 89.1706L189.975 86.0941L195.547 83.2114L200.083 85.3734L203.795 89.7036L201.118 91.048H189.975Z" fill="black"/>
<path d="M189.975 91.0481C189.975 91.0481 195.341 86.8088 201.119 91.0481C201.119 91.0481 196.371 94.1427 189.975 91.0481Z" fill="#407BFF"/>
<path opacity="0.3" d="M189.975 91.0481C189.975 91.0481 195.341 86.8088 201.119 91.0481C201.119 91.0481 196.371 94.1427 189.975 91.0481Z" fill="black"/>
<path d="M195.613 85.646C195.49 85.7785 195.34 85.8843 195.174 85.9566C195.008 86.0289 194.829 86.0662 194.647 86.0662C194.466 86.0662 194.287 86.0289 194.121 85.9566C193.955 85.8843 193.805 85.7785 193.682 85.646C193.681 86.274 193.863 86.8887 194.206 87.4147C194.549 87.9408 195.038 88.3552 195.613 88.6074C196.188 88.3543 196.675 87.9395 197.017 87.4135C197.359 86.8876 197.541 86.2733 197.539 85.646C197.416 85.7784 197.267 85.884 197.102 85.9563C196.936 86.0285 196.757 86.0658 196.576 86.0658C196.396 86.0658 196.217 86.0285 196.051 85.9563C195.885 85.884 195.736 85.7784 195.613 85.646Z" fill="#407BFF"/>
<path opacity="0.4" d="M195.613 85.646C195.49 85.7785 195.34 85.8843 195.174 85.9566C195.008 86.0289 194.829 86.0662 194.647 86.0662C194.466 86.0662 194.287 86.0289 194.121 85.9566C193.955 85.8843 193.805 85.7785 193.682 85.646C193.681 86.274 193.863 86.8887 194.206 87.4147C194.549 87.9408 195.038 88.3552 195.613 88.6074C196.188 88.3543 196.675 87.9395 197.017 87.4135C197.359 86.8876 197.541 86.2733 197.539 85.646C197.416 85.7784 197.267 85.884 197.102 85.9563C196.936 86.0285 196.757 86.0658 196.576 86.0658C196.396 86.0658 196.217 86.0285 196.051 85.9563C195.885 85.884 195.736 85.7784 195.613 85.646Z" fill="white"/>
<path opacity="0.2" d="M193.669 85.646C193.793 85.7785 193.942 85.8843 194.109 85.9566C194.275 86.0289 194.454 86.0662 194.635 86.0662C194.817 86.0662 194.996 86.0289 195.162 85.9566C195.328 85.8843 195.478 85.7785 195.601 85.646V88.6074C195.026 88.3552 194.537 87.9408 194.194 87.4147C193.851 86.8887 193.668 86.274 193.669 85.646Z" fill="white"/>
</svg>
